<svg xmlns="http://www.w3.org/2000/svg" width="405" height="262" fill="none" xmlns:v="https://vecta.io/nano"><style><![CDATA[.B{fill:#d17b41}.C{fill:#ad4921}.D{fill-rule:evenodd}.E{fill:#ebe4d8}.F{stroke-linecap:round}.G{stroke-linejoin:round}.H{fill:#0f3540}.I{fill:#f4bc3b}.J{fill:#20948b}.K{fill:#d69f1c}.L{fill:#b3b7d1}.M{fill:#ced3ee}.N{fill:#d46133}.O{fill:#3c1e14}.P{fill:#c4e4ff}.Q{fill:#dbd5ca}.R{stroke-width:1.613}]]></style><g class="D"><path d="M251.097 262c-24.535 0-44.424-.927-44.424-2.071s19.889-2.07 44.424-2.07 44.424.927 44.424 2.07S275.631 262 251.097 262zm17.098-21.72h63.63l67.732-26.895c7.121-2.842 7.392-19.778 0-21.795l-34.224-6.667-97.138 55.357z" fill="#cdd2f4"/><path d="M45.267 168.929c-6.597-.777-11.965-6.992-11.965-14.113 0-3.258 1.121-6.119 2.971-8.2 2.193-2.467 21.842 23.826 8.993 22.313zm1.648-33.392c-2.525-.258-4.933.032-7.138.769l-.004-.002-.045.018c-.649.22-1.283.475-1.894.771l-10.005 4.072 1.735 4.699c-1.072 2.455-1.673 5.237-1.673 8.232 0 8.747 5.086 16.729 12.243 20.403l2.232 6.045 10.655-4.467c7.91-2.905 12.917-9.082 12.917-18.1 0-11.322-8.517-21.369-19.023-22.44z" class="C"/><path d="M217.295 211.53l50.613 10.491 77.32-24.432-44.351-19.908-83.582 33.849z" fill="#1d857d"/><path d="M117.485 20.641s-9.388-26.494-46.063-19.45c-51.184 9.83-5.097 59.629-18.97 75.859s-32.154 29.359-12.177 47.101c35.245 31.3 74.101 21.872 85.489-6.382s-21.102-40.565-11.056-59.518 2.776-37.61 2.776-37.61z" class="J"/></g><path d="M84.899 45.413v150.176" stroke="#5a4835" stroke-width="2.165" class="F G"/><g class="D"><path d="M97.227 113.016l24.466-8.603-10.504-14.789-13.962 23.392z" class="C"/><path d="M127.386 227.035c0 4.389-28.516 7.688-63.693 7.369S0 230.266 0 225.876s28.516-7.688 63.693-7.369 63.693 4.138 63.693 8.528z" fill="#cdd2f4"/><path d="M313.652 188.625l-96.357 22.905-39.73-7.033-9.133-107.385h145.22v91.512z" fill="#e8ebf5"/><path d="M313.652 113.016l-96.357 15.212V94.102l96.357 3.01v15.904z" fill="#d6d7e7"/><path d="M217.295 211.53l-110.78-9.689V87.424l55.39-62.608 55.39 72.297V211.53z" fill="#f3f7fc"/><path d="M97.227 113.016l-7.22-5.651 67.538-88.082 7.221 5.651-67.539 88.083z" fill="#e36837"/><path d="M322.112 104.57l6.64-5.197-73.772-82.872-96.272 1.194 65.097 99.965 98.307-13.09z" fill="#cf5e32"/><path d="M285.364 72.006l-58.263 6.835c-2.879.338-6.769-1.335-8.645-3.718s-1.056-4.608 1.823-4.946l58.263-6.835c2.879-.338 6.77 1.335 8.646 3.718s1.055 4.608-1.824 4.946z" class="C"/><path d="M213.078 39.526c.865 18.522 16.202 32.544 34.257 31.318s31.99-17.234 31.125-35.756S262.258 2.544 244.203 3.77s-31.989 17.234-31.125 35.756z" class="K"/><path d="M182.505 208.487l-46.235-4.397v-72.226l46.235 2.82v73.803zm-7.591-105.891c0 8.664-6.952 15.687-15.527 15.687s-15.526-7.023-15.526-15.687 6.951-15.686 15.526-15.686 15.527 7.023 15.527 15.686z" class="L"/><path d="M170.494 102.596c0 6.297-5.053 11.402-11.286 11.402s-11.285-5.105-11.285-11.402 5.053-11.401 11.285-11.401 11.286 5.105 11.286 11.401z" class="M"/><path d="M266.221 174.046l-32.539 6.856v-41.951l32.539-6.082v41.177z" class="L"/><path d="M262.839 171.318l-25.775 4.818v-33.231l25.775-4.818v33.231z" class="M"/><path d="M306.632 166.301l-31.901 5.962v-41.128l31.901-5.963v41.129z" class="L"/><path d="M303.317 162.867l-25.271 4.723.001-32.579 25.27-4.724v32.58z" class="M"/><path d="M45.716 221.05l-8.376 1.65 2.899-7.557 38.723-63.383 8.507-3.394c1.597-.636 3.4-.446 4.832.511l2.946 1.97c3.719 2.487 4.518 7.665 1.725 11.178l-42.878 53.914a14.22 14.22 0 0 1-8.377 5.111z" class="C"/><path d="M31.421 221.35c-2.306-2.16-2.588-5.747-.648-8.248l46.366-59.769c2.182-2.812 6.277-3.141 8.871-.711l.96.899c2.336 2.188 2.591 5.833.582 8.331l-47.326 58.87c-2.204 2.741-6.242 3.029-8.805.628z" class="N"/><path d="M211.885 235.586c0 1.5-13.657 2.716-30.503 2.716s-30.503-1.216-30.503-2.716 13.657-2.717 30.503-2.717 30.503 1.217 30.503 2.717z" fill="#2542c3"/><path d="M170.149 148.894l5.595 4.846s.05 3.927 3.073 5.587 5.506 2.617 5.29 7.701 7.148 5.027 4.319 9.993-13.163 4.145-15.92.545-7.065-14.673-5.649-17.904 3.292-10.768 3.292-10.768z" class="O"/><path d="M180.643 158.464s-6.736 7.701-9.243 5.878-3.33-4.536-3.33-4.536l-4.593 4.976s6.267 8.003 9.744 7.583 11.56-6.312 11.56-6.312l-4.138-7.589z" class="P"/><path d="M181.947 232.113l4.21-2.575c.716-.18 1.582-.173 2.586.165.451.152.522-.163.499.236l.48 1.724c.45 1.161-.465 1.789-1.807 2.1l-4.563.985c-.659.166-1.516.096-2.215-.145-.749-.259-1.001-1.175-.467-1.66.27-.245.676-.523 1.277-.83z" class="H"/><path d="M189.265 229.807c.008 1.398-3.358 1.418-3.366.02l-.026-4.543 3.365-.02.027 4.543z" fill="#569c72"/><path d="M189.602 227.766c-1.335 1.211-2.742 1.324-4.221.361 0 0-4.365-27.538-4.612-41.905l10.332-4.498c-.693 8.904-2.533 23.604-2.533 23.604 3.586 6.862 1.467 16.09 1.034 22.438z" fill="#1b1b1e"/><path d="M191.101 181.724l-2.897 1.261c-.438 5.279-1.213 12.202-1.775 17-.367 3.127-.088 6.254.67 9.264 1.574 6.254.042 13.544-.319 18.834a4.81 4.81 0 0 1-.597.463c1.188.465 2.327.21 3.419-.78.385-5.642 2.102-13.56-.04-20.07-.638-1.94-.788-4.026-.541-6.089.59-4.948 1.604-13.778 2.08-19.883z" fill="#0e0e0f"/><path d="M200.732 230.79c.217 1.38-3.107 1.914-3.324.533l-.705-4.486 3.324-.534.705 4.487z" fill="#569c72"/><path d="M200.892 229.081c-1.375 1.266-2.761 1.55-4.162.714 0 0-1.701-9.236-4.122-19.04-1.873-7.587-4.45-15.17-5.276-21.247l9.512-6.327c.206 5.43 1.251 17.35 1.712 22.463.108 1.195.47 2.345 1.046 3.394 2.511 4.569 1.29 20.043 1.29 20.043z" fill="#1b1b1e"/><path d="M179.957 184.577c.055-4.957-.296-12.105-.958-18.289-.487-6.065.442-9.804 8.639-9.653 6.537-.274 8.581.193 10.624 7.212l-.579 20.041c-.086 7.765-18.237 9.812-17.726.689z" class="P"/><path d="M198.274 167.556l-.591 16.332c-.05 4.528-6.244 7.112-11.297 6.67 5.761-3.35 9.385-11.83 11.888-23.002z" fill="#a0c3e0"/><path d="M185.963 155.516s.582.948.954 1.142 5.571-2.087 5.099-6.406c-.298-2.735-5.434-2.094-5.434-2.094l-.619 7.358z" fill="#1a1c1c"/><path d="M188.128 159.494l-.257.038a1.6 1.6 0 0 1-1.812-1.354l-.733-4.938c-.13-.876.473-1.7 1.34-1.831l.257-.039a1.6 1.6 0 0 1 1.812 1.353l1.395 4.642c.13.875-1.135 1.997-2.002 2.129z" class="B"/><path d="M185.722 155.906s2.092.087 3.496-1.912c0 0-1.377 3.066-3.291 3.293l-.205-1.381z" fill="#b36430"/><g class="B"><path d="M187.052 154.149c-1.049 2.058-2.776 2.35-3.857.652s-1.106-4.743-.057-6.8 2.776-2.35 3.856-.652 1.107 4.743.058 6.8z"/><path d="M189.464 153.914c-1.049 2.057-4.88 2.996-5.96 1.298s.253-5.356 1.302-7.414 2.776-2.349 3.857-.651 1.851 4.709.801 6.767z"/></g><g fill="#1a1c1c"><path d="M187.541 148.446s-.912 4.193 2.319 5.491c0 0 3.976-1.799 1.637-6.17-2.061-3.854-6.234-1.52-6.234-1.52l2.278 2.199zm-5.143 2.355s.631-1.773 2.899-2.313l-1.621-1.221s-1.806.223-1.278 3.534z"/><path d="M189.027 151.12c-.629-1.069-.045-1.801-4.291-2.32-.359-.044-1.643 1.477-1.987 1.368-1.614-.516-.929-2.301-.929-2.301-.215-1.419.753-1.949 2.158-2.167l3.657-.566c2.07-.332 3.852 1.545 4.068 2.964l.07.237c.215 1.419-1.342 2.567-2.746 2.785z"/></g><path d="M190.246 153.845c-.255.5-.863.697-1.358.439s-.69-.872-.435-1.372.863-.697 1.359-.44.69.872.434 1.373z" class="B"/><path d="M197.382 231.133l.393 2.858c.046.338.47 2.108.63 2.408.461.868 1.313.473 1.972.482.873.012 2.386-.924 1.658-2.819l-1.319-3.392c-1.197.637-2.327.898-3.334.463z" class="H"/><path d="M184.763 154.795c-.572-.06-1.037-.68-1.04-1.386l2.069.215c.003.706-.458 1.23-1.029 1.171z" fill="#fff"/><path d="M203.208 193.061c.71-.185 1.181-.911 1.047-1.613l-.465-2.44c-.133-.701-.823-1.123-1.531-.938s-1.181.911-1.048 1.613l.466 2.44c.133.701.823 1.123 1.531.938z" class="B"/><path d="M176.19 231.174l.066 3.236c.028.34.353 2.131.496 2.439.413.893 1.723.702 2.38.748.872.061 1.996-.944 1.373-2.877l-1.478-4.008c-1.231.57-1.949.463-2.837.462zm-14.015 3.773l4.801-4.61c.696-.283 1.943-.289 2.928-.009.442.126.649.451.631.91l.023.855c-.004 1.431.121 1.914-.798 2.288l-5.459 2.219c-1.15.726-4.112-.002-2.126-1.653z" class="H"/><g class="B"><path d="M167.093 230.869s-2.755 2.757-2.461 3.003c1.216 1.021 4.593-1.512 4.593-1.512s-1.551-1.585-2.132-1.491z"/><path d="M169.865 231.193c-.088.874-.892 1.547-1.741 1.359-.506-.112-.935-.487-1.007-1.086-.278-7.483-2.095-13.295-2.359-20.29-.296-7.853.269-8.012-.168-20.051l7.272.866c-.989 8.711-1.115 19.668-1.115 19.668 2.209 8.171.12 9.64-.882 19.534z"/><path d="M178.952 232.127c-.548 1.328-2.504.695-2.732-.627-.654-7.459-2.761-13.17-3.377-20.142-.691-7.829-.135-8.016-1.177-20.018l7.306.492c-.549 8.75-.124 19.7-.124 19.7 2.664 8.188.559 10.187.104 20.595z"/></g><path d="M164.634 179.456s-1.538-.602-.809 27.051c0 0 1.734 1.603 6.503 2.857 4.496 1.181 7.416-4.17 11.054-2.897 0 0-2.249-5.288-1.947-7.763s1.804-16.942-2.223-17.413-12.578-1.835-12.578-1.835z" class="H"/><path d="M181.382 206.473s-1.423-4.935-1.121-7.411.978-17.294-3.049-17.765l-3.309-.436c.281 2.408.845 6.355 1.954 12.809 1.478 8.604-1.315 13.353-4.057 15.865 3.695-.116 6.584 0 9.582-3.062z" fill="#0b262e"/><path d="M164.729 166.307s-.176-6.485 3.341-6.502c.489-.002 1.296-.488 1.862-.478 2.937.049 2.522.079 4.677.838.812.286 1.394 2.611 1.292 3.492l1.383 2.588-12.555.062z" class="B"/><path d="M166.857 159.662c.572-.099 1.323-.27 1.256.069-.293 1.491 4.377 1.651 4.663.347.049-.222.886-.42 1.106-.293l1.171.43c6.316 1.694 4.861 3.473 3.439 6.907 0 0-1.669 6.017-1.651 8.464.015 2.115 2.009 5.311 2.39 5.975.494.86-2.111 6.455-10.208 5.822-6.376-.498-5.752-3.169-5.746-6.669.004-2.203 1.117-8.12 1.022-9.862s-1.464-2.998-.646-5.833l1.419-4.769 1.785-.588z" class="I"/><path d="M170.694 161.285l-.236-.296c-.695.107-1.289-.043-1.355-.735l-.375-3.898a1.37 1.37 0 0 1 1.144-1.452l.206-.031c.695-.108 1.741.16 1.808.851l.569 4.131c.066.691-1.065 1.323-1.761 1.43z" class="B"/><path d="M168.948 158.442s1.663.041 2.846-1.556c0 0-1.239 2.405-2.771 2.609l-.075-1.053z" fill="#b36430"/><path d="M165.872 152.566s-1.035 4.08 1.259 5.133 3.456-7.344 3.456-7.344l-4.715 2.211z" class="O"/><path d="M172.977 150.776c-.525-1.091-1.435-1.367-2.337-.862-.811-.448-1.866-.021-2.718 1.249-1.186 1.768-1.693 4.71-.927 6.301.335.695.939.899 1.519.971.543.067 1.101.013 1.641-.134 1.931-.527 1.942-.243 2.732-1.421 1.186-1.768.856-4.513.09-6.104z" class="B"/><g class="O"><path d="M171.728 151.327c.565 1.877.401 6.084.465 6.648 0 0 3.795.117 3.551-4.235-.303-5.417-3.495-2.883-3.495-2.883l-.521.47z"/><path d="M172.974 152.144c-2.014-.988-3.68-1.774-7.044.744-.213-.474.504-1.974 1.203-2.43 1.46-.953 2.202-1.47 3.739-1.713l.37-.019c2.236-.11 3.36.823 3.704 3.011.03.193.357 1.083.36 1.243l-.696-.284c.023 1.283-.351-.651-1.636-.552z"/></g><path d="M168.273 157.155c-.414-.152-.749-.813-.75-1.478l1.5.549c0 .664-.335 1.08-.75.929z" fill="#fff"/><path d="M173.667 155.944a1.09 1.09 0 0 1-1.084 1.095 1.09 1.09 0 0 1-1.083-1.095 1.09 1.09 0 0 1 1.083-1.094 1.09 1.09 0 0 1 1.084 1.094z" class="B"/><path d="M179.288 181.628c-.381-.664-1.819-4.293-1.462-6.377 1.218-7.102-.12-7.708-1.907-7.175-.672 1.535.672 4.695-2.699 5.926 4.102 5.733 1.9 12.02-1.729 13.379 6.059-.588 8.234-4.993 7.797-5.753z" class="K"/><g fill="#fff"><path d="M168.985 158.984l-1.462.467s-.39 2.035.59 2.728l1.565-1.204s-.73-.93-.693-1.991z"/><path d="M169.678 160.975l1.159 1.569s2.854-1.215 2.741-3.142l-1.261-.546s-1.296 2.162-2.639 2.119z"/></g><path d="M176.301 231.783s.582 3.482 2.026 3.188.505-3.706.505-3.706l-2.531.518zm-14.666-68.652a1.32 1.32 0 0 0 1.862-.204l1.586-1.995c.455-.573.364-1.419-.203-1.88h0a1.32 1.32 0 0 0-1.862.204l-1.586 1.995c-.455.573-.364 1.419.203 1.88z" class="B"/><path d="M196.423 159.327s6.567 10.611 6.896 14.677l1.052 14.537c.511 1.537-3.409 1.671-4.056 1.224l-1.32-9.766c-.473-3.442-2.05-6.82-3.855-9.534-2.447-3.679 1.283-11.138 1.283-11.138z" class="P"/><path d="M179.456 190.522c.709-.185 1.18-.911 1.047-1.613l-.465-2.44c-.134-.701-.823-1.123-1.532-.938s-1.181.911-1.047 1.613l.465 2.44c.134.701.823 1.123 1.532.938zm-12.491-22.512c.458.578 1.306.715 1.885.304l2.013-1.427c.579-.41.678-1.218.221-1.796s-1.307-.715-1.886-.304l-2.013 1.427c-.578.41-.677 1.218-.22 1.796z" class="B"/><path d="M292.396 170.978c-3.508-18.871 12.657-35.771 31.367-32.398l.901.175c24.203 5.022 12.33 38.702 12.33 38.702s2.019-24.882 18.002-18.423-6.702 38.134-6.702 38.134h-36.798c-8.253 0-15.335-5.936-16.858-14.13l-2.242-12.06z" fill="#1d857d"/><g class="E"><path d="M254.794 238.696l-13.401-1.488v-29.841l6.701-7.602 6.7 9.091v29.84zm-26.802-3.028l-13.401-1.489v-29.841l6.701-7.601 6.7 9.09v29.841z"/><path d="M241.393 237.157l-13.401-1.489v-29.841l6.701-7.601 6.7 9.09v29.841z"/></g><path d="M223.806 117.66l7.22-5.651-72.318-94.314-5.749 7.57 70.847 92.396z" fill="#e36837"/><path d="M231.026 112.009l97.726-12.636-6.64 5.197-98.306 13.09 7.22-5.651z" class="C"/><path d="M220.131 41.293c.864 18.522 16.202 32.544 34.257 31.318s31.989-17.234 31.125-35.756-16.202-32.544-34.257-31.318-31.99 17.234-31.125 35.756z" class="I"/><path d="M230.809 40.569c.583 12.472 10.91 21.913 23.067 21.088s21.541-11.604 20.958-24.076-10.909-21.913-23.066-21.088-21.541 11.604-20.959 24.076z" class="E"/><path d="M249.843 61.548c11.593-1.404 20.371-11.892 19.808-23.967-.517-11.064-8.705-19.737-19.034-20.979-11.593 1.404-20.372 11.892-19.808 23.967.517 11.064 8.705 19.737 19.034 20.979z" fill="#fff"/><path d="M244.29 12.359c1.14 1.982-.235 4.939-3.071 6.604s-6.059 1.407-7.2-.575.235-4.939 3.071-6.604 6.059-1.407 7.2.575zm-10.63 8.519c.57.991-.117 2.47-1.535 3.302s-3.03.704-3.6-.288.117-2.469 1.535-3.302 3.03-.704 3.6.288z" fill="#ffd066"/><path d="M217.295 128.228l-58.087-78.102-52.693 70.435v-19.658l52.193-68.069 58.74 76.534-.153 18.86z" fill="#e3e8f9"/><path d="M237.064 157.186l13.469-16.799 4.759-.89-18.228 23.32v-5.631zm0 11.818l25.775-30.917v9.778l-23.571 27.859-2.204.412v-7.132zm41.048-20.13l13.087-16.322 4.707-.88-17.794 22.764v-5.562zm0 11.672l25.205-30.259v9.68l-23.028 27.216-2.177.407v-7.044z" fill="#eaedfd"/><path d="M139.274 169.387c-.46 0-.837-.38-.837-.846v-5.516c0-.465.377-.846.837-.846s.837.381.837.846v5.516c0 .466-.376.846-.837.846z" fill="#71758c"/><path d="M148.481 106.33a11.36 11.36 0 0 0 1.62 3.098l15.604-16.092a11.26 11.26 0 0 0-3.229-1.616l-13.995 14.61zm4.072 5.536c1.552 1.129 3.388 1.86 5.344 2.079l12.475-12.517-.082-.633a11.41 11.41 0 0 0-2.543-5.567l-15.194 16.638z" fill="#eaedfd"/><path d="M179.779 163.657s1.64 8.689 1.26 11.534-.7 11.058-.7 11.058c-1.123.402-2.396.723-3.748-.098 0 0 .706-2.97.436-11.344-.176-5.478-2.618-7.228-2.462-7.459s5.214-3.691 5.214-3.691zm-15.156-2.147s-6.758 12.184-5.236 15.567 5.015.312 8.06-4.229c2.802-4.178 1.085-4.297 1.085-4.297l-1.953-1.47-1.956-5.571z" class="I"/><path d="M163.82 168.735l-.191 1.277s1.599-1.893 2.512-2.469l-2.321 1.192zm-.343 8.946s4.833-5.68 5.575-8.294c0 0-2.894 8.613-5.795 10.613l.22-2.319z" class="K"/></g><path d="M241.131 236.941V207.1m-13.05 28.634v-29.84" stroke="#b3ada4" class="F G R"/><g class="D"><path d="M268.378 206.313l-.585 30.391 3.785 2.398-.069-29.841-3.131-2.948z" class="E"/><path d="M254.794 208.95l-6.7-9.185 3.063-.985 5.962 7.533-2.325 2.637zm-13.401-1.611l-6.7-9.185 3.063-.986 5.962 7.534-2.325 2.637zm-13.401-1.58l-6.7-9.185 3.063-.985 5.962 7.533-2.325 2.637z" class="Q"/><path d="M27.829 145.452L17.32 158.844l4.018 11.612 7.095 5.925 9.742 1.064 7.092-6.616-5.266-.387s-7.307-7.757-7.307-7.992-.823-8.895-1.401-9.179-.578-7.819-.578-7.819h-2.886z" class="C"/><path d="M33.302 173.583c-6.608-.674-11.965-6.993-11.965-14.113s5.357-12.347 11.965-11.673 11.964 6.993 11.964 14.113-5.357 12.347-11.964 11.673zm1.69-33.193c-10.506-1.072-19.024 7.238-19.024 18.559s8.517 21.369 19.024 22.44 19.024-7.237 19.024-18.559-8.517-21.368-19.024-22.44z" class="N"/><g class="C"><path d="M95.449 220.866c-6.597-.777-11.965-6.993-11.965-14.113 0-3.258 1.121-6.119 2.971-8.201 2.193-2.467 21.842 23.827 8.993 22.314zm1.648-33.392c-2.525-.258-4.933.031-7.138.769l-.004-.002-.045.018c-.649.22-1.283.475-1.894.771l-10.005 4.071 1.735 4.699c-1.072 2.456-1.673 5.237-1.673 8.233 0 8.747 5.086 16.729 12.243 20.403l2.232 6.045 10.655-4.467c7.91-2.905 12.917-9.082 12.917-18.1 0-11.322-8.517-21.369-19.023-22.44z"/><path d="M78.011 197.389l-10.509 13.392 4.018 11.612 7.095 5.925 9.742 1.064 7.092-6.617-5.266-.386s-7.306-7.757-7.306-7.992-.823-8.895-1.401-9.179-.578-7.819-.578-7.819h-2.886z"/></g><path d="M83.484 225.52c-6.608-.674-11.965-6.993-11.965-14.113s5.357-12.347 11.965-11.673 11.965 6.993 11.965 14.113-5.357 12.347-11.965 11.673zm1.69-33.193c-10.506-1.072-19.024 7.237-19.024 18.559s8.517 21.369 19.024 22.44 19.023-7.238 19.023-18.559-8.517-21.369-19.023-22.44z" class="N"/><path d="M223.706 260.846c-2.385 0-3.906-2.596-2.736-4.696 2.711-4.868 7.831-11.843 15.109-12.368 11.26-.813 16.086 11.647 16.086 11.647s5.294-5.417 13.74-5.417c5.27 0 10.411 2.456 14.352 5.03 2.609 1.704 1.388 5.804-1.719 5.804h-54.832z" class="J"/></g><path d="M220.308 69.713l10.784-1.284" stroke="#e36837" stroke-width="1.732" class="F G"/><g class="D"><path d="M294.638 183.038a17.43 17.43 0 0 0 1.204 3.883c9.662.313 49.73-2.116 56.642-28.673-7.103-1.56-11.007 3.671-13.118 9.069 1.503-10.351.811-25.343-14.702-28.562l-.901-.175c-18.71-3.374-34.875 13.527-31.367 32.398l2.242 12.06z" class="J"/><path d="M358.632 174.189l-3.279-1.885-6.554 9.352 3.131 2.937 6.702-10.404zm-13.404 4.07l-3.279-1.885-6.553 9.353 3.13 2.937 6.702-10.405zm-13.403 4.117l-3.279-1.884-6.554 9.352 3.131 2.937 6.702-10.405zm-13.404 4.118l-3.279-1.885-6.553 9.352 3.13 2.938 6.702-10.405zm-13.403 4.117l-3.279-1.885-6.554 9.353 3.131 2.937 6.702-10.405zm-13.404 4.117l-3.279-1.885-6.553 9.353 3.13 2.937 6.702-10.405zm-13.403 4.118l-3.279-1.885-6.554 9.352 3.131 2.937 6.702-10.404z" class="E"/><g class="Q"><path d="M284.912 235.02l-13.403 4.118v-29.841l6.701-10.405 6.702 6.288v29.84z"/><path d="M298.316 230.903l-13.404 4.117v-29.84l6.702-10.405 6.702 6.288v29.84z"/><path d="M311.719 226.786l-13.403 4.117v-29.84l6.701-10.405 6.702 6.287v29.841z"/><path d="M325.123 222.669l-13.404 4.117v-29.841l6.702-10.405 6.702 6.288v29.841z"/><path d="M338.526 218.551l-13.403 4.118v-29.841l6.702-10.405 6.701 6.288v29.84z"/><path d="M351.93 214.434l-13.404 4.117v-29.84l6.702-10.405 6.702 6.288v29.84z"/><path d="M365.333 210.317l-13.403 4.117v-29.84l6.702-10.405 6.701 6.287v29.841z"/></g></g><path d="M285.001 235.075v-29.84m13.404 25.778v-29.841m13.403 25.778v-29.84m13.404 25.559v-29.621m13.403 25.503v-29.566m13.404 25.321v-29.383m13.403 25.394V180.86m-93.755 58.278v-29.84m-16.985 29.804v-29.841" stroke="#b3ada4" class="F G R"/><g class="D"><path d="M271.509 239.102l-3.314 1.178-10.716-4.223v-29.84l4.016-4.869 3.731-1.212 6.283 9.125v29.841z" class="Q"/><path d="M268.195 240.28l-13.401-1.489V208.95l6.701-7.601 6.7 9.09v29.841z" class="E"/></g><path d="M259.79 33.01l-.699 2.398h-14.084l.698-2.398h14.085zm-6.314 16.695l-8.029-9.38-.015-1.882h3.703c1.072 0 1.958-.177 2.656-.531.708-.364 1.24-.855 1.594-1.472s.531-1.31.531-2.079c0-.86-.167-1.614-.501-2.261-.334-.658-.86-1.169-1.578-1.533-.709-.374-1.64-.562-2.793-.562h-4.007l.713-2.398h3.294c1.76 0 3.212.268 4.356.804 1.153.526 2.013 1.295 2.58 2.307s.85 2.236.85 3.673c0 1.234-.238 2.342-.713 3.324-.466.971-1.24 1.735-2.323 2.292-1.072.556-2.519.835-4.34.835l7.467 8.682v.182h-3.445zm6.314-22.099l-.699 2.398h-11.352l.698-2.398h11.353z" class="I"/></svg>