<svg xmlns="http://www.w3.org/2000/svg" width="309" height="359"><defs><linearGradient id="r" x1="95.336%" x2="-176.679%" y1="6.1%" y2="25.3%"><stop offset="0%" stop-color="#4A198A"/><stop offset="100%" stop-color="#181134"/></linearGradient><linearGradient id="a" x1="50.032%" x2="50.032%" y1="-.608%" y2="98.481%"><stop offset="0%" stop-color="#343C5C"/><stop offset="100%" stop-color="#32416E" stop-opacity="0"/></linearGradient><linearGradient id="c" x1=".501%" x2="100.069%" y1="50%" y2="50%"><stop offset=".289%" stop-color="#FFD44F"/><stop offset="100%" stop-color="#FFA607"/></linearGradient><linearGradient id="d" x1=".447%" x2="100.008%" y1="50.691%" y2="50.691%"><stop offset=".289%" stop-color="#FFD44F"/><stop offset="100%" stop-color="#FFA607"/></linearGradient><linearGradient id="e" x1="-13.7%" x2="119.2%" y1="50%" y2="67.986%"><stop offset="0%" stop-color="#FBA5CB"/><stop offset="100%" stop-color="#FFCCB3"/></linearGradient><linearGradient id="f" x1="-13.75%" x2="119.255%" y1="50%" y2="68%"><stop offset="0%" stop-color="#FBA5CB"/><stop offset="100%" stop-color="#FFCCB3"/></linearGradient><linearGradient id="g" x1="-69.9%" x2="129.6%" y1="47.1%" y2="47.1%"><stop offset="0%" stop-color="#A7A0DC"/><stop offset="100%" stop-color="#7C12ED"/></linearGradient><linearGradient id="h" x1="-177.579%" x2="100.039%" y1="100%" y2="69.2%"><stop offset="0%" stop-color="#4A198A"/><stop offset="100%" stop-color="#0A0717"/></linearGradient><linearGradient id="i" x1="33.4%" x2="33.4%" y1="852.5%" y2="-62%"><stop offset="0%" stop-color="#4A198A"/><stop offset="100%" stop-color="#181134"/></linearGradient><linearGradient id="j" x1="68.4%" x2="0%" y1="-60.513%" y2="246.045%"><stop offset="0%" stop-color="#858AFC"/><stop offset="53.8%" stop-color="#B3B2FE"/><stop offset="100%" stop-color="#F4CDFA"/></linearGradient><linearGradient id="k" x1="31.6%" x2="31.6%" y1="90.8%" y2="131.2%"><stop offset="0%" stop-color="#FFF"/><stop offset="35.8%" stop-color="#F7F7FD"/><stop offset="100%" stop-color="#D1DBFF"/></linearGradient><linearGradient id="l" x1="147.7%" x2="-22.9%" y1="56.1%" y2="56.1%"><stop offset="0%" stop-color="#FBBBA5"/><stop offset="100%" stop-color="#FDBFA1"/></linearGradient><linearGradient id="m" x1="58.2%" x2="140%" y1="96.363%" y2="64.788%"><stop offset="0%" stop-color="#4A198A"/><stop offset="100%" stop-color="#181134"/></linearGradient><linearGradient id="n" x1="33.4%" x2="33.4%" y1="852.5%" y2="-62%"><stop offset="0%" stop-color="#4A198A"/><stop offset="100%" stop-color="#181134"/></linearGradient><linearGradient id="o" x1="0%" x2="163.3%" y1="15.6%" y2="15.6%"><stop offset="0%" stop-color="#82C8FF"/><stop offset="100%" stop-color="#6140F1"/></linearGradient><linearGradient id="p" x1="58.206%" x2="140.071%" y1="96.4%" y2="64.8%"><stop offset="0%" stop-color="#4A198A"/><stop offset="100%" stop-color="#181134"/></linearGradient><linearGradient id="q" x1="-135.7%" x2="129.5%" y1="56.1%" y2="56.1%"><stop offset="0%" stop-color="#384FC3"/><stop offset="28.3%" stop-color="#82C8FF"/><stop offset="100%" stop-color="#6140F1"/></linearGradient><linearGradient id="b" x1=".413%" x2="99.981%" y1="49.309%" y2="49.309%"><stop offset=".289%" stop-color="#FFD44F"/><stop offset="100%" stop-color="#FFA607"/></linearGradient><linearGradient id="s" x1="-120.3%" x2="164.1%" y1="56.1%" y2="56.1%"><stop offset="0%" stop-color="#82C8FF"/><stop offset="100%" stop-color="#6140F1"/></linearGradient><linearGradient id="t" x1="95.336%" x2="-176.679%" y1="6.1%" y2="25.3%"><stop offset="0%" stop-color="#4A198A"/><stop offset="100%" stop-color="#181134"/></linearGradient><linearGradient id="u" x1="58.2%" x2="140%" y1="96.363%" y2="64.788%"><stop offset="0%" stop-color="#4A198A"/><stop offset="100%" stop-color="#181134"/></linearGradient><linearGradient id="v" x1="-303.7%" x2="125.4%" y1="70%" y2="70%"><stop offset="0%" stop-color="#82C8FF"/><stop offset="100%" stop-color="#6140F1"/></linearGradient><linearGradient id="w" x1="-47.7%" x2="122.9%" y1="56.1%" y2="56.1%"><stop offset="0%" stop-color="#FBA5CB"/><stop offset="100%" stop-color="#FFCCB3"/></linearGradient><linearGradient id="x" x1="251.759%" x2="11.47%" y1="-49.2%" y2="83.9%"><stop offset="0%" stop-color="#384FC3"/><stop offset="28.3%" stop-color="#82C8FF"/><stop offset="100%" stop-color="#6140F1"/></linearGradient><linearGradient id="y" x1="151.18%" x2="-83.405%" y1="155.4%" y2="-381.1%"><stop offset="0%" stop-color="#82C8FF"/><stop offset="100%" stop-color="#6140F1"/></linearGradient><linearGradient id="z" x1="-47.7%" x2="122.9%" y1="43.9%" y2="43.9%"><stop offset="0%" stop-color="#FBA5CB"/><stop offset="100%" stop-color="#FFCCB3"/></linearGradient><linearGradient id="A" x1="117.428%" x2="29.649%" y1="-93.8%" y2="172.1%"><stop offset="0%" stop-color="#FF70DA"/><stop offset="100%" stop-color="#FF4669"/></linearGradient><linearGradient id="B" x1="-.682%" x2="100.064%" y1="50.092%" y2="50.092%"><stop offset=".289%" stop-color="#FFD44F"/><stop offset="100%" stop-color="#FFA607"/></linearGradient><linearGradient id="C" x1="57.393%" x2="43.811%" y1="-8.477%" y2="102.958%"><stop offset=".289%" stop-color="#FFD44F"/><stop offset="100%" stop-color="#FFA607"/></linearGradient><linearGradient id="D" x1="49.75%" x2="49.75%" y1="103.033%" y2="-3.267%"><stop offset=".289%" stop-color="#FFD44F"/><stop offset="100%" stop-color="#FF9807"/></linearGradient><linearGradient id="E" x1="30.66%" x2="56.535%" y1="35.237%" y2="66.091%"><stop offset="0%" stop-color="#FAA404"/><stop offset="100%" stop-color="#FF7904" stop-opacity="0"/></linearGradient><linearGradient id="F" x1="73.94%" x2="27.537%" y1="99.53%" y2="21.751%"><stop offset="0%" stop-color="#FFE491"/><stop offset="100%" stop-color="#FFF"/></linearGradient><linearGradient id="G" x1="-47.7%" x2="122.9%" y1="43.9%" y2="43.9%"><stop offset="0%" stop-color="#FBA5CB"/><stop offset="100%" stop-color="#FFCCB3"/></linearGradient><linearGradient id="H" x1="95.3%" x2="-176.5%" y1="6.135%" y2="25.319%"><stop offset="0%" stop-color="#4A198A"/><stop offset="100%" stop-color="#181134"/></linearGradient><linearGradient id="I" x1="95.3%" x2="-176.5%" y1="6.135%" y2="25.319%"><stop offset="0%" stop-color="#4A198A"/><stop offset="100%" stop-color="#181134"/></linearGradient></defs><g fill="none" fill-rule="evenodd"><g transform="translate(89.623 78)"><path fill="#EAEEF9" fill-rule="nonzero" d="M126.303 71.507c5.104-4.66 5.463-12.571.795-17.674-4.664-5.102-12.584-5.472-17.692-.813-5.104 4.695-5.46 12.608-.795 17.71 4.664 5.102 12.587 5.435 17.692.777ZM127.472 15.64a5.252 5.252 0 0 0 .333-7.432 5.278 5.278 0 0 0-7.446-.333 5.25 5.25 0 0 0-.337 7.432 5.282 5.282 0 0 0 7.45.333Z"/><path fill="#FFF" fill-rule="nonzero" d="M140.377 259.553c0 10.205-8.237 18.783-18.783 18.783H18.784C8.566 278.336 0 270.09 0 259.553V18.783C0 8.577 8.237 0 18.783 0h102.811c10.217 0 18.783 8.245 18.783 18.782v240.771Z"/><path fill="#1C3754" fill-rule="nonzero" d="M121.594 0c10.217 0 18.783 8.245 18.783 18.782v240.771c0 10.205-8.237 18.783-18.783 18.783H18.784C8.566 278.336 0 270.09 0 259.553V18.783C0 8.577 8.237 0 18.783 0h102.811Z"/><path fill="#F2F6FF" fill-rule="nonzero" d="M131.152 18.782v240.771c0 3.956-2.308 7.247-5.933 8.578-.987.333-1.975.665-2.966.665h-103.8c-.658 0-1.316 0-2.307-.332-3.954-.999-6.92-4.955-6.92-9.244V18.782c0-5.25 4.286-9.539 9.557-9.539h14.829c1.975 0 3.625 1.627 3.625 3.624 0 3.956 2.966 6.914 6.92 6.914H96.55c3.958 0 6.92-2.958 6.92-6.914 0-1.997 1.65-3.624 3.625-3.624h14.83c4.941 0 9.228 4.29 9.228 9.54Z"/><path fill="#F5F7FD" fill-rule="nonzero" stroke="#E4E8F5" stroke-dasharray="1.98" stroke-linecap="round" stroke-linejoin="round" stroke-width=".984" d="M116.181 206.58H26.433c-4.782 0-8.722-3.95-8.722-8.747V85.264c0-4.796 3.94-8.746 8.722-8.746h89.748c4.784 0 8.722 3.95 8.722 8.746v112.57c0 4.796-3.938 8.745-8.722 8.745Z"/><path fill="#E1E7F8" fill-rule="nonzero" d="M122.488 7.946V52.24c0 4.796-3.849 8.746-8.525 8.746H26.236c-4.674 0-8.525-3.95-8.525-8.746V8.228h16.226c1.924 0 3.3 1.41 3.3 3.385 0 3.95 3.3 7.336 7.15 7.336h51.15c3.853 0 7.152-3.386 7.152-7.336-.274-1.974 1.1-3.385 3.025-3.385h14.024v-.564c1.102 0 1.926 0 2.75.282Z"/><path fill="#EAEEF9" fill-rule="nonzero" d="M124.903 227.739v39.764c-.843.283-1.686.283-2.813.283H17.71V227.74c0-4.796 3.94-8.746 8.722-8.746h89.748c4.784 0 8.722 3.95 8.722 8.746Z"/><rect width="20.444" height="20.436" x="25.556" y="229.909" fill="#1B1DC7" opacity=".1" rx="2"/><path fill="#1B1DC7" d="M27.556 258.01h90.555a2 2 0 0 1 2 2v8.217H25.556v-8.218a2 2 0 0 1 2-2Z" opacity=".2"/><rect width="61.333" height="5.109" x="53.667" y="229.909" fill="#1B1DC7" opacity=".1" rx="2"/><rect width="30.667" height="5.109" x="53.667" y="240.127" fill="#1B1DC7" opacity=".1" rx="2"/><path fill="#2D5887" fill-rule="nonzero" d="M79.086 12.534H65.574c-1.317 0-2.304-.998-2.304-2.33 0-1.293.987-2.292 2.304-2.292h13.512c1.317 0 2.305.999 2.305 2.293-.33 1.33-1.317 2.329-2.305 2.329ZM57.337 12.534h-.988c-1.32 0-2.308-.998-2.308-2.33 0-1.293.988-2.292 2.308-2.292h.988c1.317 0 2.308.999 2.308 2.293 0 1.33-.991 2.329-2.308 2.329Z"/></g><g fill-rule="nonzero"><path fill="#96E3C1" d="M161.889 285.49H43.802c-1.983 0-3.4-1.41-3.4-3.377V157.139c0-1.968 1.417-3.377 3.4-3.377h118.653c.281.845.281 1.69.281 2.535v70.927c0 .846.285 1.69.285 2.536 0 .842 0 1.406-.285 1.968v48.414c0 1.687-.281 3.658-.847 5.348Z"/><path fill="#1FC07C" d="M162.736 277.326H52.013c-1.982 0-3.399-1.407-3.399-3.378V165.304c0-1.971 1.417-3.378 3.4-3.378h110.722v65.298c0 .846.285 1.69.285 2.536 0 .842 0 1.406-.285 1.968v45.598Z"/><path fill="#96E3C1" d="M162.74 256.215c-2.834 1.971-5.948 3.662-9.347 4.504-2.549.564-4.815 1.126-7.646 1.126h-.566c-18.408-.562-33.417-19.14-33.417-41.937 0-22.8 15.01-41.375 33.417-41.94h.566c2.549 0 5.097.281 7.646 1.126 3.399.845 6.513 2.533 9.346 4.504v-12.946H76.932c0 5.346-1.982 10.413-5.944 14.072-3.684 3.658-8.78 5.91-14.16 5.91v59.107c5.38 0 10.476 1.971 14.16 5.913 3.68 3.658 5.944 8.726 5.944 14.071h85.807v-13.51Z"/><path fill="#96E3C1" d="M154.7 248.81c-14.041-16.079-21.062-24.237-21.062-24.474v-.072c3.104 0 6.354-.795 9.749-2.387 1.819-.712 3.723-2.268 5.711-4.667 1.504-2.375 2.328-4.405 2.474-6.092h6.475c.049 0 1.188-1.638 3.42-4.916 0-.071-.061-.119-.182-.142h-9.968c-.46-2.114-1.334-3.907-2.619-5.38h9.349c.267-.214 1.43-1.876 3.492-4.987v-.072h-34.995c-.073 0-1.225 1.627-3.456 4.881v.178h9.24c1.552 0 3.298.309 5.238.926 2.717 1.045 4.548 2.506 5.494 4.382v.072h-16.516c-.048 0-1.225 1.638-3.528 4.916 0 .095.048.142.145.142h20.808c0 .76-.146 1.497-.437 2.21-1.867 4.868-6.632 7.303-14.296 7.303-1.625 0-3.044-.084-4.256-.25l-.073.178v4.738c0 .072 6.84 7.91 20.517 23.513h9.276Z"/><path fill="url(#a)" d="M161 17.84H0C.845 9.061 7.32 2.266 15.762.565c.845-.282 1.69-.282 2.535-.282h123.845c1.968 0 3.938.282 5.629.848l2.532.85c5.91 3.115 10.133 9.062 10.697 15.857Z" opacity=".3" transform="rotate(90 12.51 150.51)"/></g><g fill-rule="nonzero"><path fill="url(#b)" d="M84.336 30.595v9.525c0 1.304-.764 2.316-2.038 2.316H2.038C1.02 42.436 0 41.424 0 40.12v-9.525c0-1.272.764-2.316 2.038-2.316h80.26c1.274 0 2.038 1.044 2.038 2.316Z" transform="translate(0 315.961)"/><path fill="#FFF" d="m22.165 344.24-2.802 13.896H7.898L10.7 344.24zM60.133 344.24l-2.806 13.896h-6.624l2.803-13.895zM26.754 344.24l-2.802 13.896h-2.803l2.803-13.895z" opacity=".5"/><path fill="#4F3500" d="M84.336 356.603H.255v1.533h84.081z" opacity=".1"/><path fill="url(#c)" d="M85.865 16.472v9.524c0 1.272-.764 2.316-2.038 2.316H3.567c-1.02 0-2.038-1.044-2.038-2.316v-9.524c0-1.305.764-2.316 2.038-2.316h80.26c1.274 0 2.038 1.011 2.038 2.316Z" transform="translate(0 315.961)"/><path fill="#FFF" d="m23.697 330.117-2.802 14.156H9.427l2.802-14.156zM61.916 330.117l-3.06 14.156h-6.624l2.802-14.156zM28.538 330.117l-2.803 14.156h-3.057l2.803-14.156z" opacity=".5"/><path fill="#4F3500" d="M86.12 342.707H2.038v1.534H86.12z" opacity=".1"/><path fill="url(#d)" d="M102.174 2.316v9.524c0 1.272-.765 2.316-2.039 2.316H19.872c-1.019 0-2.038-1.044-2.038-2.316V2.316c0-1.272.764-2.316 2.038-2.316h80.263c1.274.26 2.039 1.305 2.039 2.316Z" transform="translate(0 315.961)"/><path fill="#FFF" d="m57.582 316.222-2.803 13.895H43.315l2.802-13.895zM95.546 316.222l-2.802 13.895H86.12l2.802-13.895zM62.171 316.222l-2.802 13.895h-2.806l2.806-13.895z" opacity=".5"/><path fill="#4F3500" d="M102.174 328.584H18.089v1.533h84.085z" opacity=".1"/></g><path fill="url(#e)" fill-rule="nonzero" d="m156.377 324.049 2.167 28.559h-31.111s1.411-4.36 4.917-5.586c3.506-1.227 10.797-.437 12.84-8.694a52.023 52.023 0 0 0 1.657-14.28h9.53Z" transform="translate(98.044 .968)"/><path fill="url(#f)" fill-rule="nonzero" d="m184.24 322.376 2.375 30.232h23.748s-1.384-5.259-4.751-6.226a14.26 14.26 0 0 1-8.31-6.534c-2.176-3.476-4.722-17.472-4.722-17.472h-8.34Z" transform="translate(98.044 .968)"/><path fill="url(#g)" fill-rule="nonzero" d="M143.856 146.359s-17.477 17.353-15.187 47.749c2.29 30.395 15.187 68.227 15.187 83.534 0 15.307 1.44 48.011 1.44 48.011h12.513s4.39-45.3 2.195-53.695c-2.195-8.396 0-89.495 0-89.495s12.95 80.69 14.62 87.305c1.671 6.615 8.463 55.885 8.463 55.885l11.886-1.201s-.04-45.575-4.446-59.872c-4.405-14.296-3.697-29.759-3.697-34.428 0-4.67 9.3-43.992 3.697-62.319-5.602-18.327-15.903-21.474-15.903-21.474h-30.768Z" transform="translate(98.044 .968)"/><path fill="#FFF" fill-rule="nonzero" d="m276.422 155.192.929 2.968.742 2.446.572 1.944.78 2.757.68 2.556.396 1.588.35 1.494.157.71.277 1.346c.295 1.511.49 2.816.574 3.895l.07 1.4.064 2.32.147 11.801.196 22.024.141 10.674.202 10.225.12 4.406.134 3.928.148 3.443.164 2.954.142 2.006.153 1.686.122 1.053.085.6.087.519.091.437.094.354c.73 2.403 1.417 5.287 2.061 8.607l.382 2.043.371 2.146.362 2.246.351 2.344c.058.399.115.801.172 1.208l.337 2.486.165 1.278.322 2.625.313 2.713.303 2.8c.883 8.402 1.589 17.402 2.135 26.402l.262 4.546.36 7.456-1.38.053-.146-3.29-.213-4.144-.262-4.538c-.545-8.98-1.25-17.961-2.13-26.341l-.301-2.783-.154-1.359-.316-2.652-.325-2.562c-.055-.419-.11-.835-.166-1.246l-.339-2.423-.348-2.327-.359-2.228c-.12-.726-.243-1.436-.368-2.128l-.377-2.026c-.574-2.96-1.18-5.565-1.82-7.78l-.265-.902-.098-.414-.095-.495-.09-.573-.132-1.01-.083-.773-.12-1.308-.147-2.02-.137-2.335-.126-2.649-.196-5.389-.209-8.327-.168-9.89-.168-15.208-.201-22.03-.09-4.964-.047-1.467-.03-.681a18.023 18.023 0 0 0-.07-.89l-.124-1-.174-1.11-.224-1.217a63.223 63.223 0 0 0-.131-.646l-.298-1.37-.345-1.469-.392-1.564-.436-1.658-.48-1.747-.524-1.835-.862-2.91-.438-1.435-.926-2.956 1.317-.418Z"/><path fill="url(#h)" fill-rule="nonzero" d="m160.004 182.469-11.318-2.622 10.99 12.247z" opacity=".335" transform="translate(98.044 .968)"/><path fill="#FFF" fill-rule="nonzero" d="m252.93 182.576 1.38.04-.223 8.365-.163 6.63-.218 9.89-.166 8.631-.135 8.355-.084 6.529-.067 7.204-.028 6.598.019 7.438.056 4.895.093 4.23.083 2.435.1 2.116.055.935.093 1.246.102 1.054.112.86.08.461.042.198.087.327c.015.046.03.09.045.129l.046.106c.05.099.097.213.142.341l.132.432c.021.079.042.162.062.248l.117.564.108.65c.017.116.034.236.05.358l.094.78.085.863.075.948.097 1.575.053 1.151.065 1.876.045 2.053.033 3.005.001 3.303-.029 3.594-.096 5.918-.052 2.331-.126 4.792-.154 4.93-.27 7.38-.36 8.315-1.38-.067.232-5.217.31-7.954.167-4.98.14-4.858c.022-.798.041-1.59.06-2.373l.108-5.41.053-4.334.014-2.687-.008-3.33-.03-2.399-.03-1.485-.062-2.052-.084-1.836-.103-1.61-.081-.946-.09-.84-.1-.732c-.105-.678-.224-1.191-.358-1.53l-.068-.155a2.17 2.17 0 0 1-.109-.271l-.103-.363-.098-.453-.092-.542-.086-.631-.12-1.11-.106-1.306-.065-.977-.138-2.81-.088-2.622-.068-2.946-.058-4.128-.02-2.71-.01-2.882.01-6.18.048-7.046.088-7.704.124-8.25.156-8.552.224-10.508.322-13.014.118-4.28Z"/><path fill="url(#i)" fill-rule="nonzero" d="M175.048 144.87c.305.757.615 1.544.93 2.363h-32.684l.487-1.183.496-1.18h30.77Z" transform="translate(98.044 .968)"/><path fill="url(#j)" fill-rule="nonzero" d="M155.492 143.957h2.185a2.185 2.185 0 1 1 0 4.37h-2.185a2.185 2.185 0 1 1 0-4.37Z" transform="translate(98.044 .968)"/><path fill="url(#k)" fill-rule="nonzero" d="M143.858 144.87s1.033-.77-4.768-21.667c-3.666-13.21 0-36.59 0-36.59h42.035s.16 24.193-.684 33.614c-.843 9.42-5.818 24.643-5.818 24.643h-30.765Z" transform="translate(98.044 .968)"/><g transform="translate(235.143 43.445)"><path fill="#15273B" fill-rule="nonzero" d="M34.794 8.824s12.027 12.905 7.55 24.347a39.063 39.063 0 0 0-1.383 22.49s-7.88-4.52-10.6-10.2c-4.702-9.786 4.433-36.637 4.433-36.637Z"/><path fill="#1C3754" fill-rule="nonzero" d="M3.882 22.596s-6.268-6.679-2.874-13.545c3.394-6.867 12.779-6.637 12.779-6.637s9.958-5.431 16.593 0c13.504 11.054-4.355 32.458-4.355 32.458L3.882 22.596Z"/><path fill="url(#l)" fill-rule="nonzero" d="M14.767 44.75V38.14a9.363 9.363 0 0 1-7.388-4.197c-3.037-4.32-2.237-15.58-2.237-15.58a19.445 19.445 0 0 0 7.272-2.445 9.858 9.858 0 0 0 3.9-4.683 31.414 31.414 0 0 0 3.933 7.547c2.444 3.221 4.522 1.69 4.522 4.358v3.79l3.53-5.582s4.135-.365 4.135 3.471c0 4.428-6.161 4.37-6.161 4.37l-.547 15.428a10.617 10.617 0 0 1-5.482 2.252 10.34 10.34 0 0 1-5.477-2.12Z"/><path fill="url(#m)" fill-rule="nonzero" d="M26.138 29.185s-2.22 8.94-11.37 10.152v-1.195a12.098 12.098 0 0 0 6.723-2.47c1.637-1.197 3.216-3.708 4.647-6.487Z" opacity=".206"/><path fill="#EE825D" fill-rule="nonzero" d="M13.22 30.125a.365.365 0 1 1 .436.587 6.39 6.39 0 0 1-2.68 1.158c-.438.081-.883.128-1.329.14a.365.365 0 0 1-.02-.73c.409-.011.816-.054 1.219-.128a5.661 5.661 0 0 0 2.374-1.027Z"/><path fill="#F1927E" fill-rule="nonzero" d="M12.075 32.556c.177-.1.4-.038.5.138.1.175.038.398-.138.498-.187.106-.39.184-.62.237a1.857 1.857 0 0 1-.625 0 .365.365 0 1 1 .124-.72c.125.02.252.02.357.004.14-.033.276-.085.402-.157Z"/><ellipse cx="8.515" cy="23.251" fill="url(#n)" fill-rule="nonzero" rx="1" ry="1.092"/><path fill="#292C3A" fill-rule="nonzero" d="M8.317 18.113c.358.03.704.145 1.01.333.229.142.3.442.158.67a.49.49 0 0 1-.673.159 1.433 1.433 0 0 0-.495-.192 1.315 1.315 0 0 0-.579.192.49.49 0 0 1-.673-.158.486.486 0 0 1 .159-.67 2.312 2.312 0 0 1 1.093-.334Z"/><ellipse cx="15.072" cy="23.251" fill="url(#n)" fill-rule="nonzero" rx="1" ry="1.092"/><path fill="#292C3A" fill-rule="nonzero" d="M15.118 18.79c.358.03.704.145 1.01.334.23.141.3.442.158.67a.49.49 0 0 1-.673.158 1.433 1.433 0 0 0-.495-.191 1.315 1.315 0 0 0-.578.19.49.49 0 0 1-.673-.157.486.486 0 0 1 .158-.67 2.312 2.312 0 0 1 1.093-.334Z"/><path d="M6.876 26.528a3.278 3.278 0 1 0 .001-6.555 3.278 3.278 0 0 0-.001 6.555Z"/><path fill="#FFF" fill-rule="nonzero" d="M6.876 25.982a2.735 2.735 0 0 0 2.732-2.73 2.735 2.735 0 0 0-2.732-2.731 2.735 2.735 0 0 0-2.732 2.73 2.735 2.735 0 0 0 2.732 2.731m0 .546a3.278 3.278 0 1 1-.001-6.555 3.278 3.278 0 0 1 0 6.555Z"/><path d="M15.064 26.528a3.278 3.278 0 1 0 .001-6.555 3.278 3.278 0 0 0 0 6.555Z"/><path fill="#FFF" fill-rule="nonzero" d="M15.064 25.982a2.735 2.735 0 0 0 2.732-2.73 2.735 2.735 0 0 0-2.732-2.731 2.735 2.735 0 0 0-2.732 2.73 2.735 2.735 0 0 0 2.732 2.731m0 .546a3.278 3.278 0 1 1-.001-6.555 3.278 3.278 0 0 1 .001 6.555Z"/><path fill="#FFF" fill-rule="nonzero" d="M11.065 22.223a2.37 2.37 0 0 1 1.36.688.487.487 0 0 1-.696.682 1.605 1.605 0 0 0-.664-.405 1.396 1.396 0 0 0-.8.405.487.487 0 1 1-.696-.682c.365-.372.843-.614 1.496-.688ZM27.604 21.041a.487.487 0 0 1 .273.926l-.125.037-9.48 1.459a.487.487 0 0 1-.274-.926l.125-.037 9.48-1.459Z"/><path stroke="#FFF" stroke-width=".846" d="M3.937 23.251h.53"/><path fill="#F1927E" fill-rule="nonzero" d="M11.4 24.238c.186.08.271.296.19.48a13.12 13.12 0 0 1-1.41 2.466.964.964 0 0 0-.122 1.004c.144.28.413.364.837.16a.367.367 0 0 1 .49.172c.087.182.01.4-.173.487-.777.371-1.48.152-1.807-.488a1.693 1.693 0 0 1 .042-1.56l.152-.221c.522-.721.964-1.495 1.32-2.31a.367.367 0 0 1 .368-.219l.114.03Z"/></g><path fill="url(#o)" fill-rule="nonzero" d="M151.508 92.873a35.142 35.142 0 0 1-2.962 5.542l-13.638 27.03a5.465 5.465 0 0 1-6.298 2.816l-9.79-2.63a1.093 1.093 0 0 1-.701-1.54l17.665-35.655a2.186 2.186 0 0 1 2.812-1.042l12.912 5.48Z" transform="translate(98.044 .968)"/><path fill="url(#p)" fill-rule="nonzero" d="m137.07 92.596-2.55 33.109 3.487-6.744z" opacity=".206" transform="translate(98.044 .968)"/><path fill="url(#q)" fill-rule="nonzero" d="M152.347 85.55v49.604a35.418 35.418 0 0 1-9.154-1.638c-2.604-.778-5.61-2.46-6.93-4.834l-.383-40.073a2.185 2.185 0 0 1 2.063-2.248l14.404-.81Z" transform="translate(98.044 .968)"/><path fill="url(#r)" fill-rule="nonzero" d="M152.346 85.55v31.499l-6.79-15.023 3.403-2.898-4.714-3.848 7.722-9.707z" transform="translate(98.044 .968)"/><path fill="url(#s)" fill-rule="nonzero" d="M162.84 85.558v49.604c3.52-.144 7.011-.697 10.403-1.647a27.008 27.008 0 0 0 8.851-4.916V86.476l-19.253-.918Z" transform="translate(98.044 .968)"/><path fill="url(#t)" fill-rule="nonzero" d="m162.84 85.928 7.386 9.352-4.488 3.857 3.18 2.889-6.077 13.334z" transform="translate(98.044 .968)"/><path fill="url(#u)" fill-rule="nonzero" d="M178.333 100.635v19.974l-28.603-6.218-4.059 8.345 17.792 9.44 18.632-2.76V105.6z" opacity=".206" transform="translate(98.044 .968)"/><g fill-rule="nonzero"><path fill="url(#v)" d="M4.769 7.93a7.359 7.359 0 0 1 7.627 4.862l.211.547c1.467 4.005 5.417 18.108 11.848 42.308a5.98 5.98 0 0 1-4.015 7.25l-.328.09a6.448 6.448 0 0 1-7.713-4.33L1.82 24.9l2.95-16.97Z" transform="translate(273.849 79.417)"/><path fill="url(#w)" d="m7.742 67.856 5.453.184.564-1.816a44.938 44.938 0 0 0 1.286-4.717l.02-.165c.199-2.428 3.947-6.171 3.584-7.195-.241-.681-1.99-.004-5.247 2.033l-.277-1.332c-1.329-6.307-2.42-9.594-3.27-9.86-.908-.285-.973 2.313-.194 7.795l-4.196 4.415a2.185 2.185 0 0 0-.493 2.185l2.77 8.473Z" transform="rotate(-61.001 179.886 -111.357)"/><path fill="url(#x)" d="M8.746 0H0l4.65 41.828a6.203 6.203 0 0 0 6.854 5.482 6.21 6.21 0 0 0 1.06-.21 7.751 7.751 0 0 0 5.356-9.266L8.746 0Z" transform="rotate(-61.001 232.92 -148.767)"/></g><path fill="url(#y)" fill-rule="nonzero" d="m25.798 60.743-7.852 37.366h-7.54l4.435-43.049a4.497 4.497 0 0 1 6.479-3.563 8.4 8.4 0 0 1 4.478 9.246Z" transform="rotate(98.036 93.236 181.302)"/><path fill="url(#z)" fill-rule="nonzero" d="M28.7 32.324s-.437 9.882-1.41 11.862c-.972 1.98-8.004 9.843-8.825 8.806-.82-1.038 5.988-8.806 5.988-8.806s2.318-5.203-.38-5.203-3.573 5.433-4.66 5.642c-1.088.209-1.228-1.85-.695-4.26a62.471 62.471 0 0 1 3.134-8.04l6.848-.001Z" transform="rotate(98.036 70.912 144.786)"/><path fill="url(#A)" fill-rule="nonzero" d="M41.524 47.783C34.712 39.714 31.306 35.62 31.306 35.5v-.035c1.506 0 3.082-.4 4.73-1.198.882-.358 1.806-1.138 2.77-2.342.73-1.192 1.13-2.21 1.2-3.057h3.142c.019 0 .364-.507 1.036-1.523l.4-.604.223-.34c0-.036-.03-.06-.088-.071h-4.836c-.224-1.061-.647-1.96-1.27-2.7h4.535c.13-.107.694-.941 1.694-2.502v-.036H27.864c-.035 0-.594.816-1.677 2.449v.09h4.483c.753 0 1.6.154 2.542.464 1.317.524 2.206 1.257 2.665 2.199v.036h-8.013c-.023 0-.594.822-1.712 2.467 0 .047.024.071.07.071h10.096c0 .382-.07.751-.212 1.109-.906 2.443-3.218 3.664-6.936 3.664-.788 0-1.477-.041-2.065-.125l-.035.09v2.377c0 .036 3.318 3.969 9.954 11.799h4.5Z" transform="rotate(-19.913 273.493 -373.44)"/><path fill="url(#B)" fill-rule="nonzero" d="M49.776 30.534c-.122.62-.245 1.116-.369 1.735-.122.495-.245.992-.49 1.488-.246.744-.492 1.488-.86 2.108-.123.372-.368.744-.492 1.114-.614 1.24-1.473 2.48-2.21 3.596-.369.495-.737.867-.982 1.363-2.088 2.48-4.79 4.587-7.614 6.073-.492.25-1.106.497-1.597.744-.982.372-1.842.744-2.824.992-.492.124-1.106.249-1.597.372-3.316.744-6.877.744-10.316 0C6.916 47.269-1.802 33.88 1.022 20.12 3.846 6.486 17.109-2.314 30.74.536c4.79.993 9.211 3.347 12.65 6.942 5.526 6.073 8.105 14.75 6.385 23.056Z" transform="rotate(.087 -42497.659 104863.454)"/><path fill="url(#C)" fill-rule="nonzero" d="M47.442 13.676a7.031 7.031 0 0 0-.491-.867c-1.104-1.985-2.457-3.72-4.052-5.331-3.439-3.471-7.86-5.826-12.65-6.942C16.74-2.314 3.354 6.486.53 20.121c-1.842 9.05 1.228 17.851 7.492 23.677a25.086 25.086 0 0 0 11.911 6.198c3.562.742 7 .742 10.316 0 .492-.125 1.106-.249 1.597-.373.982-.248 1.965-.62 2.824-.99a20.43 20.43 0 0 0 1.597-.745c2.947-1.488 5.526-3.47 7.615-6.074.367-.372.736-.867.981-1.364.86-1.116 1.598-2.355 2.212-3.594.122-.372.367-.744.49-1.116a15.24 15.24 0 0 0 .86-2.107c.123-.372.246-.62.368-.992 0-.124.123-.247.123-.495.124-.62.246-1.117.369-1.737 1.72-5.701.859-11.651-1.843-16.733ZM43.635 33.88c-.122.25-.245.62-.367.869a19.606 19.606 0 0 1-1.843 2.974c-.246.372-.491.744-.86 1.116-1.719 1.983-3.807 3.719-6.14 4.835-.369.247-.86.372-1.35.619a7.385 7.385 0 0 1-2.334.744c-3.07.868-6.386 1.116-9.702.372-10.93-2.355-17.93-13.14-15.719-24.172C7.53 10.205 18.337 3.14 29.267 5.37c3.807.869 7.368 2.727 10.193 5.579 1.596 1.61 2.947 3.47 3.93 5.454.123.247.245.62.368.868a20.68 20.68 0 0 1 1.35 11.9c0 .123.002.247-.122.371 0 .125-.123.372-.123.497-.245 1.363-.614 2.602-1.228 3.841Z" transform="rotate(.087 -42497.659 104863.454)"/><path stroke="url(#D)" stroke-width="1.011" d="M29.267 6.114c1.474.25 2.824.744 4.175 1.364.247.124.614.249.86.372a21.693 21.693 0 0 1 2.825 1.735c.369.248.736.497.983.869 1.965 1.735 3.56 3.718 4.666 6.073.245.372.369.869.614 1.24.245.743.614 1.487.737 2.231.859 2.975.983 6.198.369 9.421-2.211 10.66-12.527 17.478-23.088 15.37C10.846 42.558 4.092 32.146 6.179 21.486a19.537 19.537 0 0 1 5.28-9.918c4.545-4.833 11.3-6.817 17.808-5.454Z" transform="rotate(.087 -42497.659 104863.454)"/><path fill="url(#E)" fill-rule="nonzero" d="M50.673 32.882c-.122.497-.245.993-.491 1.488-.245.744-.49 1.488-.86 2.108-.122.372-.368.744-.491 1.116-.614 1.239-1.473 2.478-2.21 3.594-.369.496-.737.868-.983 1.363-2.087 2.48-4.789 4.587-7.614 6.075-.49.247-1.105.495-1.596.742-.983.372.765-.565-.218-.317-.49.124-1.104.248-1.596.372L18.565 31.59l3.371.302.614-1.364-3.183-3.172s7.55-5.577 7.305-5.825c-.123-.124 2.813-9.844 2.813-9.844l2.63 1.87 3.163-1.87 15.395 21.196Z" transform="rotate(.087 -42497.659 104863.454)"/><path fill="url(#F)" fill-rule="nonzero" d="M31.575 40.501c-7.604-8.71-11.406-13.13-11.406-13.259v-.039c1.68 0 3.44-.43 5.28-1.293.984-.386 2.015-1.228 3.092-2.528.814-1.287 1.26-2.387 1.34-3.3h3.506c.026 0 .643-.888 1.851-2.664 0-.038-.032-.064-.098-.077h-5.397c-.25-1.145-.723-2.116-1.419-2.914h5.063c.144-.116.775-1.017 1.89-2.702v-.039h-18.95c-.039 0-.662.882-1.87 2.644v.097h5.003c.84 0 1.786.167 2.836.502 1.471.566 2.463 1.357 2.975 2.374v.038h-8.943c-.027 0-.663.888-1.911 2.664 0 .051.026.077.079.077h11.267c0 .411-.078.81-.236 1.196-1.011 2.638-3.592 3.957-7.742 3.957-.88 0-1.648-.045-2.304-.135l-.04.096v2.567c0 .039 3.704 4.285 11.11 12.738h5.024Z" transform="rotate(.087 -42497.659 104863.454)"/><path fill="url(#G)" fill-rule="nonzero" d="M23.344 49.682c-1.453 1.457-4.327 3.002-4.726 2.331-.399-.67 3.536-4.526 3.536-4.526l3.696-6.65 1.171-7.574 3.25.068a86.585 86.585 0 0 1-1.167 9.52c-.656 2.56-4.306 5.373-5.76 6.831Z" transform="rotate(98.036 71.807 144.033)"/><path fill="url(#H)" fill-rule="nonzero" d="M144.4 347.516c3.815.906 14.144-1.536 14.144-1.536l.588 6.629h-31.7s1.626-6.191 6.479-6.63c4.853-.437 6.675.637 10.49 1.537Z" transform="translate(98.044 .968)"/><path fill="url(#I)" fill-rule="nonzero" d="M200.246 346.655c8.852-2.756 10.71 6.377 10.71 6.377h-24.958l-.38-4.848s8.835.276 14.628-1.53Z" transform="translate(98.044 .968)"/></g></svg>