<svg width="85" height="65" viewBox="0 0 85 65" fill="none" xmlns="http://www.w3.org/2000/svg">
<g clip-path="url(#clip0_968_170)">
<circle cx="25" cy="7" r="53" fill="url(#paint0_linear_968_170)"/>
<rect x="26.4158" y="16" width="30.2022" height="43.1461" rx="2.8764" fill="url(#paint1_linear_968_170)"/>
<rect x="29.436" y="19.0205" width="24.1618" height="12.0809" rx="1.4382" fill="#F3F8FF"/>
<rect x="29.436" y="34.1211" width="4.53034" height="4.53034" rx="2.26517" fill="#D4D4D2"/>
<rect x="29.436" y="41.672" width="4.53034" height="4.53034" rx="2.26517" fill="#D4D4D2"/>
<rect x="29.436" y="49.2227" width="14.3461" height="4.53034" rx="2.26517" fill="#D4D4D2"/>
<rect x="39.2517" y="34.1211" width="4.53034" height="4.53034" rx="2.26517" fill="#D4D4D2"/>
<rect x="39.2516" y="41.672" width="4.53034" height="4.53034" rx="2.26517" fill="#D4D4D2"/>
<rect x="49.0674" y="34.1211" width="4.53034" height="4.53034" rx="2.26517" fill="#FF9500"/>
<rect x="49.0673" y="41.672" width="4.53034" height="4.53034" rx="2.26517" fill="#FF9500"/>
<rect x="49.0674" y="49.2227" width="4.53034" height="4.53034" rx="2.26517" fill="#FF9500"/>
<g filter="url(#filter0_b_968_170)">
<rect x="11.3145" y="41.3701" width="28.764" height="18.1216" rx="1.33786" fill="url(#paint2_linear_968_170)"/>
<path d="M12.9863 46.345C12.9863 46.1372 13.1548 45.9687 13.3626 45.9687L17.4598 45.9687C17.6676 45.9687 17.8361 46.1372 17.8361 46.345L17.8361 49.2168C17.8361 49.4246 17.6676 49.5931 17.4598 49.5931L13.3626 49.5931C13.1548 49.5931 12.9863 49.4246 12.9863 49.2168L12.9863 46.345Z" fill="url(#paint3_linear_968_170)" fill-opacity="0.7"/>
<path d="M12.9863 47.2632L14.3684 47.2632C14.5274 47.2632 14.6678 47.1625 14.7357 47.0187C14.8601 46.7556 15.055 46.441 15.2765 46.3317C15.3348 46.3029 15.4027 46.3082 15.4619 46.335C15.607 46.4006 15.8229 46.5345 15.9588 46.7408M12.9863 48.2757L14.2573 48.2757C14.4651 48.2757 14.6298 48.4516 14.7207 48.6385C14.8413 48.8866 15.0644 49.0784 15.2421 49.1917C15.3218 49.2425 15.4221 49.2526 15.5047 49.2067C15.7601 49.0646 15.9694 48.7597 16.0998 48.5102C16.1719 48.3724 16.3099 48.2757 16.4655 48.2757L17.8361 48.2757M17.8361 47.5043L16.4231 47.5043C16.2894 47.5043 16.159 47.4344 16.1272 47.3046C16.0957 47.1762 16.0981 47.029 16.2072 46.9337" stroke="#BCBCBC" stroke-width="0.141505"/>
<g filter="url(#filter1_d_968_170)">
<path d="M13.6191 43.5361C13.6719 43.5455 13.7167 43.5734 13.7535 43.6196C13.7903 43.6658 13.8087 43.7182 13.8087 43.7766C13.8087 43.8266 13.7955 43.8719 13.7691 43.9125C13.7436 43.9521 13.7064 43.9837 13.6573 44.0073C13.6082 44.0299 13.5512 44.0413 13.4861 44.0413L13.0927 44.0413L13.0927 43.0578L13.4677 43.0578C13.5347 43.0578 13.5922 43.0691 13.6403 43.0918C13.6884 43.1144 13.7248 43.1451 13.7493 43.1837C13.7738 43.2215 13.7861 43.2639 13.7861 43.3111C13.7861 43.3677 13.771 43.4149 13.7408 43.4526C13.7106 43.4903 13.67 43.5182 13.6191 43.5361ZM13.254 43.471L13.4535 43.471C13.5064 43.471 13.5474 43.4592 13.5766 43.4356C13.6068 43.4111 13.6219 43.3762 13.6219 43.3309C13.6219 43.2866 13.6068 43.2521 13.5766 43.2276C13.5474 43.2021 13.5064 43.1894 13.4535 43.1894L13.254 43.1894L13.254 43.471ZM13.4719 43.9097C13.5266 43.9097 13.5696 43.8965 13.6007 43.87C13.6318 43.8436 13.6474 43.8068 13.6474 43.7597C13.6474 43.7116 13.6309 43.6733 13.5979 43.645C13.5649 43.6167 13.521 43.6026 13.4663 43.6026L13.254 43.6026L13.254 43.9097L13.4719 43.9097ZM14.5769 43.8403L14.1651 43.8403L14.0944 44.0413L13.926 44.0413L14.2783 43.0564L14.4651 43.0564L14.8175 44.0413L14.6477 44.0413L14.5769 43.8403ZM14.5316 43.7087L14.3717 43.2517L14.2104 43.7087L14.5316 43.7087ZM15.7787 44.0413L15.6174 44.0413L15.132 43.3069L15.132 44.0413L14.9707 44.0413L14.9707 43.0564L15.132 43.0564L15.6174 43.7894L15.6174 43.0564L15.7787 43.0564L15.7787 44.0413ZM16.5325 44.0413L16.1518 43.6012L16.1518 44.0413L15.9905 44.0413L15.9905 43.0578L16.1518 43.0578L16.1518 43.5064L16.5339 43.0578L16.7362 43.0578L16.3089 43.5502L16.7433 44.0413L16.5325 44.0413ZM18.0615 44.0413L17.9002 44.0413L17.4149 43.3069L17.4149 44.0413L17.2535 44.0413L17.2535 43.0564L17.4149 43.0564L17.9002 43.7894L17.9002 43.0564L18.0615 43.0564L18.0615 44.0413ZM18.8663 43.8403L18.4545 43.8403L18.3837 44.0413L18.2154 44.0413L18.5677 43.0564L18.7545 43.0564L19.1068 44.0413L18.937 44.0413L18.8663 43.8403ZM18.821 43.7087L18.6611 43.2517L18.4998 43.7087L18.821 43.7087ZM20.2959 43.0578L20.2959 44.0413L20.1345 44.0413L20.1345 43.3677L19.8345 44.0413L19.7228 44.0413L19.4214 43.3677L19.4214 44.0413L19.26 44.0413L19.26 43.0578L19.4341 43.0578L19.7794 43.829L20.1232 43.0578L20.2959 43.0578ZM20.6692 43.188L20.6692 43.4767L21.0088 43.4767L21.0088 43.6083L20.6692 43.6083L20.6692 43.9097L21.0513 43.9097L21.0513 44.0413L20.5079 44.0413L20.5079 43.0564L21.0513 43.0564L21.0513 43.188L20.6692 43.188Z" fill="white" fill-opacity="0.8" shape-rendering="crispEdges"/>
</g>
<g filter="url(#filter2_d_968_170)">
<path d="M13.03 56.731C13.03 56.6514 13.0484 56.58 13.085 56.5168C13.1225 56.4536 13.1728 56.4044 13.2361 56.3693C13.3001 56.3334 13.3699 56.3154 13.4456 56.3154C13.5322 56.3154 13.6091 56.3369 13.6762 56.3798C13.7441 56.422 13.7933 56.482 13.8237 56.5601H13.6633C13.6423 56.5172 13.613 56.4852 13.5755 56.4641C13.5381 56.443 13.4948 56.4325 13.4456 56.4325C13.3918 56.4325 13.3438 56.4446 13.3016 56.4688C13.2595 56.493 13.2263 56.5277 13.2021 56.573C13.1787 56.6182 13.167 56.6709 13.167 56.731C13.167 56.7911 13.1787 56.8438 13.2021 56.889C13.2263 56.9343 13.2595 56.9694 13.3016 56.9944C13.3438 57.0186 13.3918 57.0307 13.4456 57.0307C13.4948 57.0307 13.5381 57.0201 13.5755 56.9991C13.613 56.978 13.6423 56.946 13.6633 56.9031H13.8237C13.7933 56.9811 13.7441 57.0412 13.6762 57.0834C13.6091 57.1255 13.5322 57.1466 13.4456 57.1466C13.3691 57.1466 13.2993 57.129 13.2361 57.0939C13.1728 57.058 13.1225 57.0084 13.085 56.9452C13.0484 56.882 13.03 56.8106 13.03 56.731Z" fill="white" fill-opacity="0.8" shape-rendering="crispEdges"/>
<path d="M14.4704 56.9733H14.1298L14.0712 57.1396H13.9319L14.2234 56.3248L14.3779 56.3248L14.6694 57.1396H14.5289L14.4704 56.9733ZM14.433 56.8645L14.3007 56.4863L14.1672 56.8645H14.433Z" fill="white" fill-opacity="0.8" shape-rendering="crispEdges"/>
<path d="M15.2188 57.1396L15.0315 56.8141H14.9296L14.9296 57.1396H14.7962L14.7962 56.326H15.0771C15.1395 56.326 15.1922 56.3369 15.2351 56.3587C15.2789 56.3806 15.3112 56.4099 15.3323 56.4465C15.3542 56.4832 15.3651 56.5242 15.3651 56.5695C15.3651 56.6225 15.3495 56.6709 15.3183 56.7146C15.2878 56.7575 15.2406 56.7868 15.1766 56.8024L15.378 57.1396H15.2188ZM14.9296 56.7076H15.0771C15.1271 56.7076 15.1645 56.6951 15.1895 56.6701C15.2152 56.6452 15.2281 56.6116 15.2281 56.5695C15.2281 56.5273 15.2156 56.4945 15.1907 56.4711C15.1657 56.4469 15.1278 56.4348 15.0771 56.4348H14.9296L14.9296 56.7076Z" fill="white" fill-opacity="0.8" shape-rendering="crispEdges"/>
<path d="M15.8015 56.326C15.8882 56.326 15.9639 56.3427 16.0286 56.3763C16.0942 56.4091 16.1445 56.4567 16.1797 56.5191C16.2156 56.5808 16.2335 56.653 16.2335 56.7357C16.2335 56.8184 16.2156 56.8902 16.1797 56.9511C16.1445 57.012 16.0942 57.0588 16.0286 57.0916C15.9639 57.1236 15.8882 57.1396 15.8015 57.1396H15.5358L15.5358 56.326H15.8015ZM15.8015 57.0307C15.8968 57.0307 15.9697 57.0049 16.0204 56.9534C16.0712 56.9019 16.0965 56.8293 16.0965 56.7357C16.0965 56.6413 16.0712 56.5675 16.0204 56.5144C15.9697 56.4614 15.8968 56.4348 15.8015 56.4348H15.6693L15.6693 57.0307H15.8015Z" fill="white" fill-opacity="0.8" shape-rendering="crispEdges"/>
<path d="M17.3196 56.326L17.3196 57.1396H17.1861L17.1861 56.7837H16.8033L16.8033 57.1396H16.6699L16.6699 56.326H16.8033L16.8033 56.6748H17.1861L17.1861 56.326H17.3196Z" fill="white" fill-opacity="0.8" shape-rendering="crispEdges"/>
<path d="M17.8663 57.1477C17.7906 57.1477 17.7208 57.1302 17.6568 57.0951C17.5936 57.0592 17.5432 57.0096 17.5058 56.9464C17.4691 56.8824 17.4508 56.8106 17.4508 56.731C17.4508 56.6514 17.4691 56.58 17.5058 56.5168C17.5432 56.4536 17.5936 56.4044 17.6568 56.3693C17.7208 56.3334 17.7906 56.3154 17.8663 56.3154C17.9428 56.3154 18.0127 56.3334 18.0759 56.3693C18.1399 56.4044 18.1902 56.4536 18.2269 56.5168C18.2636 56.58 18.2819 56.6514 18.2819 56.731C18.2819 56.8106 18.2636 56.8824 18.2269 56.9464C18.1902 57.0096 18.1399 57.0592 18.0759 57.0951C18.0127 57.1302 17.9428 57.1477 17.8663 57.1477ZM17.8663 57.0319C17.9202 57.0319 17.9682 57.0198 18.0103 56.9956C18.0525 56.9706 18.0852 56.9355 18.1086 56.8902C18.1328 56.8442 18.1449 56.7911 18.1449 56.731C18.1449 56.6709 18.1328 56.6182 18.1086 56.573C18.0852 56.5277 18.0525 56.493 18.0103 56.4688C17.9682 56.4446 17.9202 56.4325 17.8663 56.4325C17.8125 56.4325 17.7645 56.4446 17.7223 56.4688C17.6802 56.493 17.647 56.5277 17.6228 56.573C17.5994 56.6182 17.5877 56.6709 17.5877 56.731C17.5877 56.7911 17.5994 56.8442 17.6228 56.8902C17.647 56.9355 17.6802 56.9706 17.7223 56.9956C17.7645 57.0198 17.8125 57.0319 17.8663 57.0319Z" fill="white" fill-opacity="0.8" shape-rendering="crispEdges"/>
<path d="M18.5467 57.0319H18.8218L18.8218 57.1396H18.4132L18.4132 56.326H18.5467L18.5467 57.0319Z" fill="white" fill-opacity="0.8" shape-rendering="crispEdges"/>
<path d="M19.1991 56.326C19.2857 56.326 19.3614 56.3427 19.4262 56.3763C19.4918 56.4091 19.5421 56.4567 19.5772 56.5191C19.6131 56.5808 19.6311 56.653 19.6311 56.7357C19.6311 56.8184 19.6131 56.8902 19.5772 56.9511C19.5421 57.012 19.4918 57.0588 19.4262 57.0916C19.3614 57.1236 19.2857 57.1396 19.1991 57.1396H18.9334L18.9334 56.326H19.1991ZM19.1991 57.0307C19.2943 57.0307 19.3673 57.0049 19.418 56.9534C19.4687 56.9019 19.4941 56.8293 19.4941 56.7357C19.4941 56.6413 19.4687 56.5675 19.418 56.5144C19.3673 56.4614 19.2943 56.4348 19.1991 56.4348H19.0668L19.0668 57.0307H19.1991Z" fill="white" fill-opacity="0.8" shape-rendering="crispEdges"/>
<path d="M19.8968 56.4337L19.8968 56.6725H20.1777L20.1777 56.7813H19.8968L19.8968 57.0307H20.2129L20.2129 57.1396H19.7633L19.7633 56.3248L20.2129 56.3248L20.2129 56.4337H19.8968Z" fill="white" fill-opacity="0.8" shape-rendering="crispEdges"/>
<path d="M20.7998 57.1396L20.6125 56.8141H20.5107L20.5107 57.1396H20.3772L20.3772 56.326H20.6582C20.7206 56.326 20.7733 56.3369 20.8162 56.3587C20.8599 56.3806 20.8923 56.4099 20.9134 56.4465C20.9352 56.4832 20.9462 56.5242 20.9462 56.5695C20.9462 56.6225 20.9305 56.6709 20.8993 56.7146C20.8689 56.7575 20.8217 56.7868 20.7577 56.8024L20.959 57.1396H20.7998ZM20.5107 56.7076H20.6582C20.7081 56.7076 20.7456 56.6951 20.7706 56.6701C20.7963 56.6452 20.8092 56.6116 20.8092 56.5695C20.8092 56.5273 20.7967 56.4945 20.7717 56.4711C20.7468 56.4469 20.7089 56.4348 20.6582 56.4348H20.5107L20.5107 56.7076Z" fill="white" fill-opacity="0.8" shape-rendering="crispEdges"/>
<path d="M22.0894 57.1396H21.9559L21.5544 56.532L21.5544 57.1396H21.421L21.421 56.3248H21.5544L21.9559 56.9312L21.9559 56.3248H22.0894L22.0894 57.1396Z" fill="white" fill-opacity="0.8" shape-rendering="crispEdges"/>
<path d="M22.7551 56.9733H22.4145L22.3559 57.1396H22.2166L22.5081 56.3248H22.6627L22.9541 57.1396H22.8137L22.7551 56.9733ZM22.7177 56.8645L22.5854 56.4863L22.4519 56.8645H22.7177Z" fill="white" fill-opacity="0.8" shape-rendering="crispEdges"/>
<path d="M23.9378 56.326L23.9378 57.1396H23.8043L23.8043 56.5823L23.5562 57.1396H23.4637L23.2143 56.5823L23.2143 57.1396H23.0809L23.0809 56.326L23.2249 56.326L23.5105 56.964L23.795 56.326H23.9378Z" fill="white" fill-opacity="0.8" shape-rendering="crispEdges"/>
<path d="M24.2466 56.4337L24.2466 56.6725H24.5276L24.5276 56.7813H24.2466L24.2466 57.0307H24.5627L24.5627 57.1396H24.1132L24.1132 56.3248L24.5627 56.3248L24.5627 56.4337H24.2466Z" fill="white" fill-opacity="0.8" shape-rendering="crispEdges"/>
</g>
<g filter="url(#filter3_d_968_170)">
<path d="M26.7522 56.4076L26.7522 56.2859H26.9957L26.9957 57.1393H26.8611L26.8611 56.4076H26.7522Z" fill="white" fill-opacity="0.8" shape-rendering="crispEdges"/>
<path d="M27.2528 56.9578C27.3277 56.893 27.3866 56.84 27.4295 56.7986C27.4732 56.7565 27.5095 56.7128 27.5384 56.6675C27.5673 56.6222 27.5817 56.577 27.5817 56.5317C27.5817 56.4849 27.5704 56.4482 27.5478 56.4217C27.5259 56.3951 27.4912 56.3819 27.4436 56.3819C27.3975 56.3819 27.3616 56.3967 27.3359 56.4263C27.3109 56.4552 27.2976 56.4942 27.2961 56.5434H27.1673C27.1697 56.4544 27.1962 56.3865 27.2469 56.3397C27.2984 56.2921 27.3636 56.2683 27.4424 56.2683C27.5275 56.2683 27.5938 56.2917 27.6414 56.3385C27.6898 56.3854 27.714 56.4478 27.714 56.5258C27.714 56.582 27.6996 56.6363 27.6707 56.6886C27.6426 56.7401 27.6086 56.7865 27.5688 56.8279C27.5298 56.8684 27.4799 56.9157 27.419 56.9695L27.3663 57.0163H27.7374L27.7374 57.1275H27.1685L27.1685 57.0304L27.2528 56.9578Z" fill="white" fill-opacity="0.8" shape-rendering="crispEdges"/>
<path d="M28.3053 56.0342L27.9869 57.3441H27.8558L28.1731 56.0342L28.3053 56.0342Z" fill="white" fill-opacity="0.8" shape-rendering="crispEdges"/>
<path d="M28.5297 56.9578C28.6046 56.893 28.6636 56.84 28.7065 56.7986C28.7502 56.7565 28.7865 56.7128 28.8153 56.6675C28.8442 56.6222 28.8587 56.577 28.8587 56.5317C28.8587 56.4849 28.8473 56.4482 28.8247 56.4217C28.8029 56.3951 28.7681 56.3819 28.7205 56.3819C28.6745 56.3819 28.6386 56.3967 28.6128 56.4263C28.5879 56.4552 28.5746 56.4942 28.573 56.5434H28.4443C28.4466 56.4544 28.4731 56.3865 28.5239 56.3397C28.5754 56.2921 28.6405 56.2683 28.7194 56.2683C28.8044 56.2683 28.8708 56.2917 28.9184 56.3385C28.9668 56.3854 28.9909 56.4478 28.9909 56.5258C28.9909 56.582 28.9765 56.6363 28.9476 56.6886C28.9195 56.7401 28.8856 56.7865 28.8458 56.8279C28.8068 56.8684 28.7568 56.9157 28.6959 56.9695L28.6433 57.0163H29.0144L29.0144 57.1275H28.4454L28.4454 57.0304L28.5297 56.9578Z" fill="white" fill-opacity="0.8" shape-rendering="crispEdges"/>
<path d="M29.5905 56.4837C29.5819 56.4478 29.5663 56.4209 29.5437 56.4029C29.521 56.385 29.4894 56.376 29.4488 56.376C29.3872 56.376 29.3411 56.3998 29.3107 56.4474C29.2803 56.4942 29.2643 56.5723 29.2627 56.6815C29.283 56.6472 29.3126 56.6207 29.3517 56.6019C29.3907 56.5832 29.4328 56.5738 29.4781 56.5738C29.5296 56.5738 29.5749 56.5852 29.6139 56.6078C29.6537 56.6296 29.6845 56.6616 29.7064 56.7038C29.729 56.7459 29.7403 56.7963 29.7403 56.8548C29.7403 56.9094 29.7294 56.9582 29.7075 57.0011C29.6865 57.044 29.6549 57.078 29.6127 57.103C29.5706 57.1272 29.5199 57.1393 29.4605 57.1393C29.3802 57.1393 29.3169 57.1217 29.2709 57.0866C29.2256 57.0507 29.1936 57.0003 29.1749 56.9356C29.157 56.8708 29.148 56.79 29.148 56.6932C29.148 56.4076 29.2487 56.2648 29.45 56.2648C29.528 56.2648 29.5893 56.2859 29.6338 56.328C29.6791 56.3702 29.7056 56.422 29.7134 56.4837H29.5905ZM29.4488 56.6862C29.4012 56.6862 29.3606 56.7007 29.3271 56.7295C29.2943 56.7576 29.2779 56.7986 29.2779 56.8524C29.2779 56.9063 29.2931 56.9492 29.3236 56.9812C29.3548 57.0124 29.3981 57.028 29.4535 57.028C29.5027 57.028 29.5413 57.0128 29.5694 56.9824C29.5983 56.952 29.6127 56.9114 29.6127 56.8606C29.6127 56.8076 29.5987 56.7654 29.5706 56.7342C29.5433 56.7022 29.5027 56.6862 29.4488 56.6862Z" fill="white" fill-opacity="0.8" shape-rendering="crispEdges"/>
</g>
<g filter="url(#filter4_d_968_170)">
<path d="M12.9866 52.6974L12.9866 52.4419H13.464L13.464 53.8861H13.1787L13.1787 52.6974H12.9866Z" fill="white" fill-opacity="0.8" shape-rendering="crispEdges"/>
<path d="M13.9667 53.5731C14.0935 53.4674 14.1945 53.3796 14.2698 53.3096C14.3451 53.2383 14.4078 53.1643 14.458 53.0877C14.5082 53.0111 14.5333 52.9358 14.5333 52.8619C14.5333 52.7945 14.5174 52.7417 14.4857 52.7034C14.454 52.6651 14.4051 52.6459 14.3391 52.6459C14.2731 52.6459 14.2222 52.6684 14.1866 52.7133C14.1509 52.7569 14.1324 52.817 14.1311 52.8936H13.8617C13.867 52.7351 13.9138 52.6149 14.0023 52.533C14.0921 52.4511 14.2057 52.4102 14.3431 52.4102C14.4936 52.4102 14.6092 52.4505 14.6898 52.531C14.7703 52.6103 14.8106 52.7153 14.8106 52.846C14.8106 52.949 14.7829 53.0474 14.7274 53.1412C14.6719 53.235 14.6085 53.3169 14.5372 53.3868C14.4659 53.4555 14.3728 53.5387 14.2579 53.6365H14.8423L14.8423 53.8663H13.8637L13.8637 53.6602L13.9667 53.5731Z" fill="white" fill-opacity="0.8" shape-rendering="crispEdges"/>
<path d="M15.1625 52.8222C15.1691 52.6902 15.2154 52.5885 15.3012 52.5172C15.3884 52.4445 15.5026 52.4082 15.6439 52.4082C15.7403 52.4082 15.8229 52.4254 15.8916 52.4597C15.9602 52.4927 16.0118 52.5383 16.0461 52.5964C16.0817 52.6532 16.0996 52.7179 16.0996 52.7905C16.0996 52.8738 16.0778 52.9444 16.0342 53.0025C15.9919 53.0593 15.9411 53.0976 15.8817 53.1174L15.8817 53.1253C15.9583 53.1491 16.0177 53.1914 16.06 53.2521C16.1035 53.3129 16.1253 53.3908 16.1253 53.4859C16.1253 53.5651 16.1068 53.6358 16.0699 53.6979C16.0342 53.76 15.9807 53.8088 15.9094 53.8445C15.8394 53.8788 15.7549 53.896 15.6558 53.896C15.5066 53.896 15.3851 53.8583 15.2913 53.7831C15.1975 53.7078 15.148 53.5968 15.1427 53.4502H15.4121C15.4148 53.515 15.4366 53.5671 15.4775 53.6067C15.5198 53.645 15.5772 53.6642 15.6499 53.6642C15.7172 53.6642 15.7687 53.6457 15.8044 53.6087C15.8414 53.5704 15.8599 53.5216 15.8599 53.4621C15.8599 53.3829 15.8348 53.3261 15.7846 53.2918C15.7344 53.2574 15.6565 53.2403 15.5508 53.2403H15.4934L15.4934 53.0124H15.5508C15.7384 53.0124 15.8321 52.9497 15.8321 52.8242C15.8321 52.7674 15.815 52.7232 15.7806 52.6915C15.7476 52.6598 15.6994 52.6439 15.636 52.6439C15.5739 52.6439 15.5257 52.6611 15.4914 52.6955C15.4584 52.7285 15.4392 52.7707 15.4339 52.8222H15.1625Z" fill="white" fill-opacity="0.8" shape-rendering="crispEdges"/>
<path d="M16.4741 53.6048L16.4741 53.3868L17.1219 52.4597H17.4448L17.4448 53.3631H17.6192L17.6192 53.6048H17.4448L17.4448 53.8861H17.1675L17.1675 53.6048H16.4741ZM17.1853 52.7569L16.7792 53.3631H17.1853L17.1853 52.7569Z" fill="white" fill-opacity="0.8" shape-rendering="crispEdges"/>
<path d="M20.3625 52.6816H19.7207L19.7207 53.0204C19.7484 52.986 19.788 52.9583 19.8395 52.9371C19.891 52.9147 19.9459 52.9035 20.004 52.9035C20.1096 52.9035 20.1961 52.9266 20.2635 52.9728C20.3308 53.019 20.3797 53.0785 20.4101 53.1511C20.4405 53.2224 20.4557 53.299 20.4557 53.3809C20.4557 53.5328 20.4121 53.655 20.3249 53.7474C20.2391 53.8399 20.1162 53.8861 19.9564 53.8861C19.8059 53.8861 19.6857 53.8484 19.5959 53.7732C19.5061 53.6979 19.4552 53.5995 19.4433 53.478H19.7128C19.7246 53.5308 19.7511 53.5731 19.792 53.6048C19.8343 53.6365 19.8877 53.6523 19.9525 53.6523C20.0304 53.6523 20.0892 53.6279 20.1288 53.579C20.1684 53.5301 20.1882 53.4654 20.1882 53.3849C20.1882 53.303 20.1677 53.2409 20.1268 53.1986C20.0872 53.1551 20.0284 53.1333 19.9505 53.1333C19.895 53.1333 19.8488 53.1471 19.8118 53.1749C19.7748 53.2026 19.7484 53.2396 19.7326 53.2858H19.4671L19.4671 52.4379L20.3625 52.4379L20.3625 52.6816Z" fill="white" fill-opacity="0.8" shape-rendering="crispEdges"/>
<path d="M21.5571 52.8024C21.5439 52.747 21.5208 52.7054 21.4878 52.6776C21.4561 52.6499 21.4098 52.636 21.3491 52.636C21.2579 52.636 21.1906 52.673 21.147 52.747C21.1047 52.8196 21.083 52.9385 21.0816 53.1036C21.1133 53.0507 21.1596 53.0098 21.2203 52.9807C21.2811 52.9504 21.3471 52.9352 21.4184 52.9352C21.5043 52.9352 21.5802 52.9537 21.6462 52.9906C21.7123 53.0276 21.7638 53.0818 21.8008 53.1531C21.8377 53.2231 21.8562 53.3076 21.8562 53.4067C21.8562 53.5004 21.8371 53.5843 21.7988 53.6583C21.7618 53.7309 21.707 53.7877 21.6344 53.8286C21.5617 53.8696 21.4752 53.89 21.3748 53.89C21.2375 53.89 21.1292 53.8597 21.0499 53.7989C20.972 53.7382 20.9172 53.6536 20.8855 53.5453C20.8551 53.4357 20.8399 53.301 20.8399 53.1412C20.8399 52.8995 20.8815 52.7172 20.9648 52.5944C21.048 52.4703 21.1794 52.4082 21.359 52.4082C21.4977 52.4082 21.6053 52.4458 21.6819 52.5211C21.7585 52.5964 21.8027 52.6902 21.8146 52.8024H21.5571ZM21.355 53.163C21.285 53.163 21.2263 53.1835 21.1787 53.2244C21.1312 53.2653 21.1074 53.3248 21.1074 53.4027C21.1074 53.4806 21.1292 53.542 21.1728 53.5869C21.2177 53.6318 21.2804 53.6543 21.361 53.6543C21.4323 53.6543 21.4884 53.6325 21.5294 53.5889C21.5716 53.5453 21.5927 53.4866 21.5927 53.4126C21.5927 53.336 21.5723 53.2752 21.5313 53.2303C21.4917 53.1854 21.4329 53.163 21.355 53.163Z" fill="white" fill-opacity="0.8" shape-rendering="crispEdges"/>
<path d="M23.1362 52.6519L22.6092 53.8861H22.3279L22.8588 52.6836H22.1813L22.1813 52.4458H23.1362L23.1362 52.6519Z" fill="white" fill-opacity="0.8" shape-rendering="crispEdges"/>
<path d="M23.6855 53.1214C23.5534 53.0527 23.4874 52.9464 23.4874 52.8024C23.4874 52.7311 23.5052 52.6664 23.5408 52.6083C23.5778 52.5489 23.6326 52.502 23.7053 52.4676C23.7792 52.432 23.869 52.4141 23.9747 52.4141C24.0804 52.4141 24.1695 52.432 24.2421 52.4676C24.3161 52.502 24.3709 52.5489 24.4066 52.6083C24.4435 52.6664 24.462 52.7311 24.462 52.8024C24.462 52.8751 24.4442 52.9391 24.4085 52.9946C24.3729 53.0487 24.3253 53.091 24.2659 53.1214C24.3386 53.1531 24.3953 53.1993 24.4363 53.2601C24.4772 53.3208 24.4977 53.3928 24.4977 53.476C24.4977 53.5658 24.4746 53.6444 24.4284 53.7117C24.3835 53.7778 24.3214 53.8286 24.2421 53.8643C24.1629 53.8999 24.0737 53.9178 23.9747 53.9178C23.8756 53.9178 23.7865 53.8999 23.7073 53.8643C23.6293 53.8286 23.5673 53.7778 23.521 53.7117C23.4761 53.6444 23.4537 53.5658 23.4537 53.476C23.4537 53.3928 23.4741 53.3208 23.5151 53.2601C23.556 53.198 23.6128 53.1518 23.6855 53.1214ZM24.1926 52.8421C24.1926 52.7773 24.1728 52.7272 24.1332 52.6915C24.0949 52.6558 24.0421 52.638 23.9747 52.638C23.9087 52.638 23.8558 52.6558 23.8162 52.6915C23.7779 52.7272 23.7588 52.778 23.7588 52.844C23.7588 52.9035 23.7786 52.951 23.8182 52.9867C23.8591 53.0223 23.9113 53.0402 23.9747 53.0402C24.0381 53.0402 24.0903 53.0223 24.1312 52.9867C24.1721 52.9497 24.1926 52.9015 24.1926 52.8421ZM23.9747 53.2422C23.8994 53.2422 23.838 53.2614 23.7905 53.2997C23.7442 53.338 23.7211 53.3928 23.7211 53.4641C23.7211 53.5301 23.7436 53.5843 23.7885 53.6266C23.8347 53.6675 23.8968 53.688 23.9747 53.688C24.0526 53.688 24.114 53.6668 24.1589 53.6246C24.2038 53.5823 24.2263 53.5288 24.2263 53.4641C24.2263 53.3941 24.2032 53.34 24.157 53.3017C24.1107 53.262 24.05 53.2422 23.9747 53.2422Z" fill="white" fill-opacity="0.8" shape-rendering="crispEdges"/>
<path d="M26.4488 52.6974L26.4488 52.4419H26.9262L26.9262 53.8861H26.641L26.641 52.6974H26.4488Z" fill="white" fill-opacity="0.8" shape-rendering="crispEdges"/>
<path d="M27.4289 53.5731C27.5557 53.4674 27.6567 53.3796 27.732 53.3096C27.8073 53.2383 27.87 53.1643 27.9202 53.0877C27.9704 53.0111 27.9955 52.9358 27.9955 52.8619C27.9955 52.7945 27.9796 52.7417 27.9479 52.7034C27.9163 52.6651 27.8674 52.6459 27.8013 52.6459C27.7353 52.6459 27.6845 52.6684 27.6488 52.7133C27.6131 52.7569 27.5947 52.817 27.5933 52.8936H27.3239C27.3292 52.7351 27.3761 52.6149 27.4646 52.533C27.5544 52.4511 27.668 52.4102 27.8053 52.4102C27.9559 52.4102 28.0714 52.4505 28.152 52.531C28.2326 52.6103 28.2728 52.7153 28.2728 52.846C28.2728 52.949 28.2451 53.0474 28.1896 53.1412C28.1342 53.235 28.0708 53.3169 27.9995 53.3868C27.9281 53.4555 27.835 53.5387 27.7201 53.6365H28.3045L28.3045 53.8663H27.3259L27.3259 53.6602L27.4289 53.5731Z" fill="white" fill-opacity="0.8" shape-rendering="crispEdges"/>
<path d="M28.6248 52.8222C28.6314 52.6902 28.6776 52.5885 28.7634 52.5172C28.8506 52.4445 28.9649 52.4082 29.1062 52.4082C29.2026 52.4082 29.2851 52.4254 29.3538 52.4597C29.4225 52.4927 29.474 52.5383 29.5083 52.5964C29.544 52.6532 29.5618 52.7179 29.5618 52.7905C29.5618 52.8738 29.54 52.9444 29.4964 53.0025C29.4542 53.0593 29.4033 53.0976 29.3439 53.1174L29.3439 53.1253C29.4205 53.1491 29.4799 53.1914 29.5222 53.2521C29.5658 53.3129 29.5876 53.3908 29.5876 53.4859C29.5876 53.5651 29.5691 53.6358 29.5321 53.6979C29.4964 53.76 29.443 53.8088 29.3716 53.8445C29.3016 53.8788 29.2171 53.896 29.1181 53.896C28.9688 53.896 28.8473 53.8583 28.7535 53.7831C28.6598 53.7078 28.6102 53.5968 28.605 53.4502L28.8744 53.4502C28.877 53.515 28.8988 53.5671 28.9398 53.6067C28.982 53.645 29.0395 53.6642 29.1121 53.6642C29.1795 53.6642 29.231 53.6457 29.2666 53.6087C29.3036 53.5704 29.3221 53.5216 29.3221 53.4621C29.3221 53.3829 29.297 53.3261 29.2468 53.2918C29.1966 53.2574 29.1187 53.2403 29.0131 53.2403H28.9556L28.9556 53.0124H29.0131C29.2006 53.0124 29.2944 52.9497 29.2944 52.8242C29.2944 52.7674 29.2772 52.7232 29.2429 52.6915C29.2098 52.6598 29.1616 52.6439 29.0982 52.6439C29.0362 52.6439 28.988 52.6611 28.9536 52.6955C28.9206 52.7285 28.9015 52.7707 28.8962 52.8222H28.6248Z" fill="white" fill-opacity="0.8" shape-rendering="crispEdges"/>
<path d="M29.9364 53.6048L29.9364 53.3868L30.5842 52.4597H30.9071L30.9071 53.3631H31.0814L31.0814 53.6048H30.9071L30.9071 53.8861H30.6297L30.6297 53.6048H29.9364ZM30.6476 52.7569L30.2414 53.3631H30.6476L30.6476 52.7569Z" fill="white" fill-opacity="0.8" shape-rendering="crispEdges"/>
<path d="M33.8248 52.6816H33.1829L33.1829 53.0204C33.2106 52.986 33.2503 52.9583 33.3018 52.9371C33.3533 52.9147 33.4081 52.9035 33.4662 52.9035C33.5719 52.9035 33.6584 52.9266 33.7257 52.9728C33.7931 53.019 33.8419 53.0785 33.8723 53.1511C33.9027 53.2224 33.9179 53.299 33.9179 53.3809C33.9179 53.5328 33.8743 53.655 33.7871 53.7474C33.7013 53.8399 33.5785 53.8861 33.4187 53.8861C33.2681 53.8861 33.1479 53.8484 33.0581 53.7732C32.9683 53.6979 32.9175 53.5995 32.9056 53.478H33.175C33.1869 53.5308 33.2133 53.5731 33.2542 53.6048C33.2965 53.6365 33.35 53.6523 33.4147 53.6523C33.4926 53.6523 33.5514 53.6279 33.591 53.579C33.6306 53.5301 33.6504 53.4654 33.6504 53.3849C33.6504 53.303 33.63 53.2409 33.589 53.1986C33.5494 53.1551 33.4906 53.1333 33.4127 53.1333C33.3572 53.1333 33.311 53.1471 33.274 53.1749C33.2371 53.2026 33.2106 53.2396 33.1948 53.2858H32.9293L32.9293 52.4379L33.8248 52.4379L33.8248 52.6816Z" fill="white" fill-opacity="0.8" shape-rendering="crispEdges"/>
<path d="M35.0193 52.8024C35.0061 52.747 34.983 52.7054 34.95 52.6776C34.9183 52.6499 34.8721 52.636 34.8113 52.636C34.7202 52.636 34.6528 52.673 34.6092 52.747C34.567 52.8196 34.5452 52.9385 34.5439 53.1036C34.5756 53.0507 34.6218 53.0098 34.6825 52.9807C34.7433 52.9504 34.8093 52.9352 34.8807 52.9352C34.9665 52.9352 35.0424 52.9537 35.1085 52.9906C35.1745 53.0276 35.226 53.0818 35.263 53.1531C35.3 53.2231 35.3185 53.3076 35.3185 53.4067C35.3185 53.5004 35.2993 53.5843 35.261 53.6583C35.224 53.7309 35.1692 53.7877 35.0966 53.8286C35.024 53.8696 34.9374 53.89 34.8371 53.89C34.6997 53.89 34.5914 53.8597 34.5122 53.7989C34.4343 53.7382 34.3794 53.6536 34.3477 53.5453C34.3174 53.4357 34.3022 53.301 34.3022 53.1412C34.3022 52.8995 34.3438 52.7172 34.427 52.5944C34.5102 52.4703 34.6416 52.4082 34.8212 52.4082C34.9599 52.4082 35.0675 52.4458 35.1441 52.5211C35.2207 52.5964 35.265 52.6902 35.2769 52.8024H35.0193ZM34.8173 53.163C34.7473 53.163 34.6885 53.1835 34.6409 53.2244C34.5934 53.2653 34.5696 53.3248 34.5696 53.4027C34.5696 53.4806 34.5914 53.542 34.635 53.5869C34.6799 53.6318 34.7426 53.6543 34.8232 53.6543C34.8945 53.6543 34.9507 53.6325 34.9916 53.5889C35.0339 53.5453 35.055 53.4866 35.055 53.4126C35.055 53.336 35.0345 53.2752 34.9936 53.2303C34.954 53.1854 34.8952 53.163 34.8173 53.163Z" fill="white" fill-opacity="0.8" shape-rendering="crispEdges"/>
<path d="M36.5984 52.6519L36.0714 53.8861H35.7901L36.321 52.6836H35.6435L35.6435 52.4458L36.5984 52.4458L36.5984 52.6519Z" fill="white" fill-opacity="0.8" shape-rendering="crispEdges"/>
<path d="M37.1477 53.1214C37.0156 53.0527 36.9496 52.9464 36.9496 52.8024C36.9496 52.7311 36.9674 52.6664 37.0031 52.6083C37.0401 52.5489 37.0949 52.502 37.1675 52.4676C37.2415 52.432 37.3313 52.4141 37.4369 52.4141C37.5426 52.4141 37.6317 52.432 37.7044 52.4676C37.7783 52.502 37.8331 52.5489 37.8688 52.6083C37.9058 52.6664 37.9243 52.7311 37.9243 52.8024C37.9243 52.8751 37.9064 52.9391 37.8708 52.9946C37.8351 53.0487 37.7876 53.091 37.7282 53.1214C37.8008 53.1531 37.8576 53.1993 37.8985 53.2601C37.9395 53.3208 37.9599 53.3928 37.9599 53.476C37.9599 53.5658 37.9368 53.6444 37.8906 53.7117C37.8457 53.7778 37.7836 53.8286 37.7044 53.8643C37.6251 53.8999 37.536 53.9178 37.4369 53.9178C37.3379 53.9178 37.2487 53.8999 37.1695 53.8643C37.0916 53.8286 37.0295 53.7778 36.9833 53.7117C36.9384 53.6444 36.9159 53.5658 36.9159 53.476C36.9159 53.3928 36.9364 53.3208 36.9773 53.2601C37.0183 53.198 37.0751 53.1518 37.1477 53.1214ZM37.6549 52.8421C37.6549 52.7773 37.635 52.7272 37.5954 52.6915C37.5571 52.6558 37.5043 52.638 37.4369 52.638C37.3709 52.638 37.3181 52.6558 37.2784 52.6915C37.2401 52.7272 37.221 52.778 37.221 52.844C37.221 52.9035 37.2408 52.951 37.2804 52.9867C37.3214 53.0223 37.3735 53.0402 37.4369 53.0402C37.5003 53.0402 37.5525 53.0223 37.5934 52.9867C37.6344 52.9497 37.6549 52.9015 37.6549 52.8421ZM37.4369 53.2422C37.3617 53.2422 37.3002 53.2614 37.2527 53.2997C37.2065 53.338 37.1834 53.3928 37.1834 53.4641C37.1834 53.5301 37.2058 53.5843 37.2507 53.6266C37.2969 53.6675 37.359 53.688 37.4369 53.688C37.5149 53.688 37.5763 53.6668 37.6212 53.6246C37.6661 53.5823 37.6885 53.5288 37.6885 53.4641C37.6885 53.3941 37.6654 53.34 37.6192 53.3017C37.573 53.262 37.5122 53.2422 37.4369 53.2422Z" fill="white" fill-opacity="0.8" shape-rendering="crispEdges"/>
</g>
<path d="M36.3992 47.4557C36.475 47.5991 36.5811 47.9528 36.3992 48.2205M36.8994 47.1808C37.0131 47.4079 37.1723 47.9887 36.8994 48.4954M37.3429 46.894C37.4907 47.2008 37.6976 48.0006 37.3429 48.7463M37.8204 46.667C38.0099 47.0295 38.2752 47.9982 37.8204 48.9734" stroke="white" stroke-width="0.226407" stroke-linecap="round" stroke-linejoin="round"/>
</g>
<path d="M60.6873 49.4019C60.6873 49.4019 61.1754 49.7058 62.5501 49.7058C64.7074 49.7058 64.7074 48.9252 64.7074 48.6185V48.0749C62.5507 47.2159 60.6997 48.02 60.6873 49.4019Z" fill="#A22C1A"/>
<path d="M60.9326 48.0753H60.5276L60.5459 49.5307C61.9794 49.5307 62.1126 48.0753 63.6292 48.0753C64.5266 48.0753 64.7078 48.6189 64.7078 48.6189C64.7078 48.6189 64.7078 47.9138 64.7078 47.3702C64.7078 47.1152 64.5174 46.4443 63.6292 46.4443C62.2485 46.4443 61.8484 48.0753 60.9326 48.0753Z" fill="#D91313"/>
<path d="M59.0199 49.4019C59.0199 49.4019 58.5318 49.7058 57.1571 49.7058C54.9998 49.7058 54.9998 48.9252 54.9998 48.6185V48.0749C57.1565 47.2159 59.0075 48.02 59.0199 49.4019Z" fill="#A22C1A"/>
<path d="M56.0784 46.4443C55.1901 46.4443 54.9998 47.1152 54.9998 47.3702C54.9998 47.9138 54.9998 48.6189 54.9998 48.6189C54.9998 48.6189 55.181 48.0753 56.0784 48.0753C57.5949 48.0753 57.7281 49.5307 59.1616 49.5307L59.18 48.0753H58.775C57.8592 48.0753 57.459 46.4443 56.0784 46.4443Z" fill="#D91313"/>
<path d="M63.6292 46.4443C62.2485 46.4443 61.8484 48.0753 60.9326 48.0753H60.5276L60.5459 49.5307C60.6759 49.5307 60.7919 49.5154 60.9024 49.4937C61.1618 49.5834 61.6747 49.7063 62.5506 49.7063C64.7078 49.7063 64.7078 48.9256 64.7078 48.6189V48.0753C64.7078 47.854 64.7078 47.5991 64.7078 47.3702C64.7078 47.1152 64.5174 46.4443 63.6292 46.4443ZM64.573 48.0753V48.6189C64.573 48.8794 64.573 49.5703 62.5506 49.5703C61.7152 49.5703 61.2168 49.4589 60.9461 49.3654L60.9121 49.3534L60.8765 49.3605C60.8064 49.3741 60.7417 49.3839 60.6786 49.3893L60.664 48.2112H60.9326C61.4018 48.2112 61.7351 47.8551 62.0878 47.4778C62.5004 47.0364 62.9265 46.5802 63.6292 46.5802C64.4036 46.5802 64.573 47.1505 64.573 47.3702V48.0753Z" fill="url(#paint4_linear_968_170)"/>
<path d="M56.0784 46.4443C55.1901 46.4443 54.9998 47.1152 54.9998 47.3702C54.9998 47.5991 54.9998 47.854 54.9998 48.0753V48.6189C54.9998 48.9256 54.9998 49.7063 57.157 49.7063C58.0329 49.7063 58.5457 49.5834 58.8052 49.4937C58.9157 49.5154 59.0317 49.5307 59.1616 49.5307L59.18 48.0753H58.775C57.8592 48.0753 57.459 46.4443 56.0784 46.4443ZM59.0284 49.3893C58.9653 49.3839 58.9006 49.3741 58.8305 49.3605L58.7949 49.3534L58.7609 49.3654C58.4907 49.4589 57.9924 49.5703 57.157 49.5703C55.1346 49.5703 55.1346 48.8794 55.1346 48.6189V48.0753V47.3702C55.1346 47.1505 55.3039 46.5802 56.0784 46.5802C56.7811 46.5802 57.2072 47.0364 57.6197 47.4778C57.9725 47.8551 58.3058 48.2112 58.775 48.2112H59.0435L59.0284 49.3893Z" fill="url(#paint5_linear_968_170)"/>
<path d="M60.9326 49.7059H58.7754V48.0749C58.7754 48.0749 58.7754 47.5312 59.854 47.5312C60.9326 47.5312 60.9326 48.0749 60.9326 48.0749V49.7059Z" fill="#D91313"/>
<path d="M65.247 59.492H54.4607C54.163 59.492 53.9214 59.2484 53.9214 58.9483V51.8809H65.7863V58.9483C65.7863 59.2484 65.5447 59.492 65.247 59.492Z" fill="#FFC200"/>
<path d="M65.6515 52.0168V58.9483C65.6515 59.1734 65.4703 59.3561 65.247 59.3561H54.4607C54.2374 59.3561 54.0562 59.1734 54.0562 58.9483V52.0168H65.6515ZM65.7863 51.8809H53.9214V58.9483C53.9214 59.2484 54.163 59.492 54.4607 59.492H65.247C65.5447 59.492 65.7863 59.2484 65.7863 58.9483V51.8809Z" fill="url(#paint6_linear_968_170)"/>
<path d="M65.7863 52.425H53.9214C53.6237 52.425 53.3821 52.1814 53.3821 51.8813V49.7067C53.3821 49.4066 53.6237 49.1631 53.9214 49.1631H65.7863C66.084 49.1631 66.3256 49.4066 66.3256 49.7067V51.8813C66.3256 52.1814 66.084 52.425 65.7863 52.425Z" fill="#FFC200"/>
<path d="M65.7863 49.299C66.0096 49.299 66.1908 49.4817 66.1908 49.7067V51.8813C66.1908 52.1064 66.0096 52.2891 65.7863 52.2891H53.9214C53.6981 52.2891 53.5169 52.1064 53.5169 51.8813V49.7067C53.5169 49.4817 53.6981 49.299 53.9214 49.299H65.7863ZM65.7863 49.1631H53.9214C53.6237 49.1631 53.3821 49.4066 53.3821 49.7067V51.8813C53.3821 52.1814 53.6237 52.425 53.9214 52.425H65.7863C66.084 52.425 66.3256 52.1814 66.3256 51.8813V49.7067C66.3256 49.4066 66.084 49.1631 65.7863 49.1631Z" fill="url(#paint7_linear_968_170)"/>
<path d="M60.9326 49.1631H58.7754V59.4925H60.9326V49.1631Z" fill="#FA472C"/>
<rect x="7" y="59.1465" width="64" height="1.4382" rx="0.719101" fill="#121425" fill-opacity="0.08"/>
<ellipse cx="16.7887" cy="30.0268" rx="6.83146" ry="6.83146" fill="#BD8E1D"/>
<ellipse cx="17.3012" cy="29.5541" rx="6.83146" ry="6.83146" fill="#FCC12E"/>
<ellipse cx="17.3015" cy="29.5542" rx="6.04354" ry="6.04354" fill="#F3AF19"/>
<ellipse cx="17.3012" cy="29.5534" rx="5.39326" ry="5.39326" fill="#FDD835"/>
<path d="M19.4882 27.9219L19.2704 28.7087H15.1099L15.3277 27.9219H19.4882ZM17.4746 32.7892L15.2388 30.1533L15.2343 29.491H16.2967C16.5723 29.491 16.799 29.4421 16.9768 29.3443C17.1575 29.2435 17.2924 29.1087 17.3813 28.9398C17.4702 28.7679 17.5146 28.5768 17.5146 28.3664C17.5146 28.1382 17.4731 27.9367 17.3901 27.7619C17.3072 27.587 17.1753 27.4507 16.9945 27.3529C16.8138 27.2552 16.5752 27.2063 16.2789 27.2063H15.1143L15.3543 26.3173H16.2789C16.8034 26.3173 17.239 26.3958 17.5857 26.5528C17.9324 26.7099 18.1917 26.9381 18.3636 27.2374C18.5384 27.5367 18.6259 27.8982 18.6259 28.322C18.6259 28.6924 18.5621 29.0198 18.4347 29.3043C18.3073 29.5858 18.1013 29.814 17.8169 29.9888C17.5324 30.1607 17.1546 30.2674 16.6834 30.3089L18.7281 32.7314V32.7892H17.4746ZM19.4926 26.3173L19.2704 27.104H15.87L16.0878 26.3173H19.4926Z" fill="#F3AF19"/>
<ellipse cx="2.22928" cy="2.22928" rx="2.22928" ry="2.22928" transform="matrix(0.992546 0.121869 -0.309017 0.951057 59.1233 16.4443)" fill="#BD8E1D"/>
<ellipse cx="2.22928" cy="2.22928" rx="2.22928" ry="2.22928" transform="matrix(0.992546 0.121869 -0.309017 0.951057 59.02 16.2256)" fill="#FCC12E"/>
<circle cx="1.99462" cy="1.99462" r="1.99462" transform="matrix(0.992546 0.121869 -0.309017 0.951057 59.1806 16.4764)" fill="#F3AF19"/>
<ellipse cx="1.75996" cy="1.75996" rx="1.75996" ry="1.75996" transform="matrix(0.992546 0.121869 -0.309017 0.951057 59.3406 16.7275)" fill="#FDD835"/>
<path d="M61.4166 18.1983L61.2668 18.4338L59.9192 18.2683L60.0691 18.0328L61.4166 18.1983ZM60.2736 19.6288L59.8153 18.7218L59.8806 18.5161L60.2247 18.5583C60.314 18.5693 60.3923 18.5631 60.4598 18.5398C60.5285 18.5157 60.5857 18.4793 60.6316 18.4304C60.6777 18.3806 60.7114 18.323 60.7326 18.2577C60.7556 18.1869 60.7625 18.1227 60.7532 18.0652C60.744 18.0076 60.715 17.96 60.6663 17.9225C60.6176 17.885 60.5453 17.8603 60.4493 17.8485L60.0721 17.8022L60.2395 17.5358L60.539 17.5726C60.7089 17.5935 60.842 17.6352 60.9385 17.6977C61.035 17.7602 61.0959 17.8414 61.1214 17.9411C61.1479 18.0409 61.1397 18.1566 61.097 18.2881C61.0596 18.4031 61.006 18.5022 60.936 18.5854C60.8664 18.6677 60.7766 18.7303 60.6669 18.7733C60.5574 18.8153 60.4243 18.8334 60.2675 18.8275L60.6855 19.6607L60.6796 19.6786L60.2736 19.6288ZM61.5799 17.7004L61.4286 17.9358L60.3272 17.8005L60.4771 17.565L61.5799 17.7004Z" fill="#F3AF19"/>
<ellipse cx="2.22928" cy="2.22928" rx="2.22928" ry="2.22928" transform="matrix(0.913545 -0.406737 0.438371 0.898794 58.7998 33.5643)" fill="#BD8E1D"/>
<ellipse cx="2.22928" cy="2.22928" rx="2.22928" ry="2.22928" transform="matrix(0.913545 -0.406737 0.438371 0.898794 58.9011 33.4373)" fill="#FCC12E"/>
<circle cx="1.99462" cy="1.99462" r="1.99462" transform="matrix(0.913545 -0.406737 0.438371 0.898794 59.2185 33.5544)" fill="#F3AF19"/>
<ellipse cx="1.75996" cy="1.75996" rx="1.75996" ry="1.75996" transform="matrix(0.913545 -0.406737 0.438371 0.898794 59.5356 33.6705)" fill="#FDD835"/>
<path d="M62.3331 33.7663L62.3807 34.026L61.1404 34.5782L61.0928 34.3186L62.3331 33.7663ZM62.4291 35.4612L61.3855 34.9848L61.2895 34.7912L61.6062 34.6502C61.6883 34.6136 61.7489 34.5692 61.7879 34.5169C61.8274 34.4633 61.8483 34.4059 61.8506 34.3445C61.8525 34.2823 61.8385 34.2204 61.8084 34.1587C61.7757 34.0917 61.7345 34.0381 61.6848 33.9979C61.635 33.9576 61.5762 33.9351 61.5083 33.9304C61.4405 33.9258 61.3624 33.9431 61.274 33.9824L60.9268 34.137L60.8712 33.8444L61.1468 33.7217C61.3032 33.652 61.4443 33.6173 61.5701 33.6173C61.696 33.6174 61.8059 33.6499 61.8999 33.7148C61.9949 33.7794 62.0727 33.8738 62.1333 33.9981C62.1863 34.1068 62.2141 34.2113 62.2168 34.3116C62.2191 34.4111 62.1904 34.5054 62.1306 34.5944C62.0703 34.6826 61.973 34.764 61.8384 34.8387L62.7945 35.2779L62.8028 35.2948L62.4291 35.4612ZM62.1049 33.2951L62.1512 33.5554L61.1375 34.0067L61.0899 33.747L62.1049 33.2951Z" fill="#F3AF19"/>
</g>
<defs>
<filter id="filter0_b_968_170" x="9.33339" y="39.3891" width="32.7262" height="22.0837" filterUnits="userSpaceOnUse" color-interpolation-filters="sRGB">
<feFlood flood-opacity="0" result="BackgroundImageFix"/>
<feGaussianBlur in="BackgroundImageFix" stdDeviation="0.990533"/>
<feComposite in2="SourceAlpha" operator="in" result="effect1_backgroundBlur_968_170"/>
<feBlend mode="normal" in="SourceGraphic" in2="effect1_backgroundBlur_968_170" result="shape"/>
</filter>
<filter id="filter1_d_968_170" x="12.7582" y="42.7219" width="8.62749" height="1.65379" filterUnits="userSpaceOnUse" color-interpolation-filters="sRGB">
<feFlood flood-opacity="0" result="BackgroundImageFix"/>
<feColorMatrix in="SourceAlpha" type="matrix" values="0 0 0 0 0 0 0 0 0 0 0 0 0 0 0 0 0 0 127 0" result="hardAlpha"/>
<feOffset/>
<feGaussianBlur stdDeviation="0.167233"/>
<feComposite in2="hardAlpha" operator="out"/>
<feColorMatrix type="matrix" values="0 0 0 0 0 0 0 0 0 0 0 0 0 0 0 0 0 0 0.1 0"/>
<feBlend mode="normal" in2="BackgroundImageFix" result="effect1_dropShadow_968_170"/>
<feBlend mode="normal" in="SourceGraphic" in2="effect1_dropShadow_968_170" result="shape"/>
</filter>
<filter id="filter2_d_968_170" x="12.6956" y="55.981" width="12.2016" height="1.50121" filterUnits="userSpaceOnUse" color-interpolation-filters="sRGB">
<feFlood flood-opacity="0" result="BackgroundImageFix"/>
<feColorMatrix in="SourceAlpha" type="matrix" values="0 0 0 0 0 0 0 0 0 0 0 0 0 0 0 0 0 0 127 0" result="hardAlpha"/>
<feOffset/>
<feGaussianBlur stdDeviation="0.167233"/>
<feComposite in2="hardAlpha" operator="out"/>
<feColorMatrix type="matrix" values="0 0 0 0 0 0 0 0 0 0 0 0 0 0 0 0 0 0 0.1 0"/>
<feBlend mode="normal" in2="BackgroundImageFix" result="effect1_dropShadow_968_170"/>
<feBlend mode="normal" in="SourceGraphic" in2="effect1_dropShadow_968_170" result="shape"/>
</filter>
<filter id="filter3_d_968_170" x="26.4177" y="55.6997" width="3.65703" height="1.97887" filterUnits="userSpaceOnUse" color-interpolation-filters="sRGB">
<feFlood flood-opacity="0" result="BackgroundImageFix"/>
<feColorMatrix in="SourceAlpha" type="matrix" values="0 0 0 0 0 0 0 0 0 0 0 0 0 0 0 0 0 0 127 0" result="hardAlpha"/>
<feOffset/>
<feGaussianBlur stdDeviation="0.167233"/>
<feComposite in2="hardAlpha" operator="out"/>
<feColorMatrix type="matrix" values="0 0 0 0 0 0 0 0 0 0 0 0 0 0 0 0 0 0 0.1 0"/>
<feBlend mode="normal" in2="BackgroundImageFix" result="effect1_dropShadow_968_170"/>
<feBlend mode="normal" in="SourceGraphic" in2="effect1_dropShadow_968_170" result="shape"/>
</filter>
<filter id="filter4_d_968_170" x="12.6521" y="52.0737" width="25.6423" height="2.17845" filterUnits="userSpaceOnUse" color-interpolation-filters="sRGB">
<feFlood flood-opacity="0" result="BackgroundImageFix"/>
<feColorMatrix in="SourceAlpha" type="matrix" values="0 0 0 0 0 0 0 0 0 0 0 0 0 0 0 0 0 0 127 0" result="hardAlpha"/>
<feOffset/>
<feGaussianBlur stdDeviation="0.167233"/>
<feComposite in2="hardAlpha" operator="out"/>
<feColorMatrix type="matrix" values="0 0 0 0 0 0 0 0 0 0 0 0 0 0 0 0 0 0 0.1 0"/>
<feBlend mode="normal" in2="BackgroundImageFix" result="effect1_dropShadow_968_170"/>
<feBlend mode="normal" in="SourceGraphic" in2="effect1_dropShadow_968_170" result="shape"/>
</filter>
<linearGradient id="paint0_linear_968_170" x1="12.6744" y1="7" x2="46.5698" y2="48.2907" gradientUnits="userSpaceOnUse">
<stop stop-color="#E3E9FF"/>
<stop offset="1" stop-color="#F4F5FF"/>
</linearGradient>
<linearGradient id="paint1_linear_968_170" x1="31.4495" y1="13.7987" x2="60.707" y2="61.707" gradientUnits="userSpaceOnUse">
<stop stop-color="#393939"/>
<stop offset="1" stop-color="#1C1C1C"/>
</linearGradient>
<linearGradient id="paint2_linear_968_170" x1="14.91" y1="26.5104" x2="34.5964" y2="59.7572" gradientUnits="userSpaceOnUse">
<stop stop-color="#FF5DA4"/>
<stop offset="1" stop-color="#4D5ECB"/>
</linearGradient>
<linearGradient id="paint3_linear_968_170" x1="13.0123" y1="45.9687" x2="17.77" y2="49.662" gradientUnits="userSpaceOnUse">
<stop stop-color="white"/>
<stop offset="0.49564" stop-color="white"/>
<stop offset="1" stop-color="white"/>
</linearGradient>
<linearGradient id="paint4_linear_968_170" x1="62.618" y1="46.4443" x2="62.618" y2="49.7063" gradientUnits="userSpaceOnUse">
<stop stop-opacity="0.02"/>
<stop offset="1" stop-opacity="0.15"/>
</linearGradient>
<linearGradient id="paint5_linear_968_170" x1="57.0901" y1="46.4443" x2="57.0901" y2="49.7063" gradientUnits="userSpaceOnUse">
<stop stop-opacity="0.02"/>
<stop offset="1" stop-opacity="0.15"/>
</linearGradient>
<linearGradient id="paint6_linear_968_170" x1="59.8539" y1="51.8809" x2="59.8539" y2="59.492" gradientUnits="userSpaceOnUse">
<stop stop-opacity="0.02"/>
<stop offset="1" stop-opacity="0.15"/>
</linearGradient>
<linearGradient id="paint7_linear_968_170" x1="59.8539" y1="49.1631" x2="59.8539" y2="52.425" gradientUnits="userSpaceOnUse">
<stop stop-opacity="0.02"/>
<stop offset="1" stop-opacity="0.15"/>
</linearGradient>
<clipPath id="clip0_968_170">
<rect width="85" height="65" fill="white"/>
</clipPath>
</defs>
</svg>
